<svg width="18" height="19" viewBox="0 0 18 19" fill="none" xmlns="http://www.w3.org/2000/svg">
<g clip-path="url(#clip0_610_1872)">
<path fill-rule="evenodd" clip-rule="evenodd" d="M9.00005 16.6998C10.9096 16.6998 12.741 15.9412 14.0912 14.591C15.4415 13.2407 16.2 11.4094 16.2 9.4998C16.2 7.59025 15.4415 5.7589 14.0912 4.40864C12.741 3.05837 10.9096 2.2998 9.00005 2.2998C7.09049 2.2998 5.25914 3.05837 3.90888 4.40864C2.55862 5.7589 1.80005 7.59025 1.80005 9.4998C1.80005 11.4094 2.55862 13.2407 3.90888 14.591C5.25914 15.9412 7.09049 16.6998 9.00005 16.6998ZM12.3363 8.8635L9.63635 6.1635C9.46661 5.99956 9.23926 5.90885 9.00329 5.9109C8.76731 5.91295 8.54158 6.0076 8.37471 6.17447C8.20784 6.34134 8.11319 6.56707 8.11114 6.80304C8.10909 7.03902 8.19981 7.26636 8.36375 7.4361L9.52745 8.5998H6.30005C6.06135 8.5998 5.83244 8.69463 5.66365 8.86341C5.49487 9.03219 5.40005 9.26111 5.40005 9.4998C5.40005 9.7385 5.49487 9.96742 5.66365 10.1362C5.83244 10.305 6.06135 10.3998 6.30005 10.3998H9.52745L8.36375 11.5635C8.27779 11.6465 8.20923 11.7458 8.16206 11.8556C8.11489 11.9654 8.09006 12.0835 8.08902 12.203C8.08798 12.3225 8.11076 12.4411 8.15601 12.5517C8.20126 12.6623 8.26809 12.7628 8.35259 12.8473C8.4371 12.9318 8.53758 12.9986 8.64819 13.0438C8.7588 13.0891 8.87731 13.1119 8.99681 13.1108C9.11631 13.1098 9.23441 13.085 9.34421 13.0378C9.45402 12.9906 9.55333 12.9221 9.63635 12.8361L12.3363 10.1361C12.5051 9.96733 12.5999 9.73845 12.5999 9.4998C12.5999 9.26116 12.5051 9.03228 12.3363 8.8635Z" fill="white"/>
</g>
<defs>
<clipPath id="clip0_610_1872">
<rect width="18" height="18" fill="white" transform="translate(0 0.5)"/>
</clipPath>
</defs>
</svg>
