<svg width="180" height="180" viewBox="0 0 180 180" fill="none" xmlns="http://www.w3.org/2000/svg">
<rect width="180" height="180" rx="25" fill="#EBEAEA"/>
<circle cx="90.5" cy="78.5" r="23.5" fill="#D7D7D7"/>
<path d="M86.4 70.593C86.584 70.2617 86.8533 69.9857 87.1799 69.7935C87.5065 69.6014 87.8786 69.5 88.2575 69.5H91.7425C92.1214 69.5 92.4935 69.6014 92.8201 69.7935C93.1467 69.9857 93.416 70.2617 93.6 70.593L94.243 71.75H96.125C96.8875 71.75 97.6188 72.0529 98.1579 72.5921C98.6971 73.1312 99 73.8625 99 74.625V78.022C97.9554 77.3528 96.7405 76.9981 95.5 77C94.9095 77 94.337 77.079 93.793 77.2265C93.5709 76.5657 93.1799 75.9745 92.6589 75.5114C92.1379 75.0483 91.5049 74.7293 90.8227 74.5862C90.1404 74.4431 89.4326 74.4808 88.7694 74.6955C88.1062 74.9102 87.5106 75.2945 87.0417 75.8103C86.5728 76.3262 86.2468 76.9555 86.0961 77.6361C85.9454 78.3168 85.9751 79.0249 86.1824 79.6905C86.3897 80.356 86.7673 80.9559 87.2779 81.4305C87.7884 81.9052 88.4141 82.2382 89.093 82.3965C88.8862 83.6118 89.0266 84.8609 89.498 86H83.875C83.1125 86 82.3812 85.6971 81.8421 85.1579C81.3029 84.6188 81 83.8875 81 83.125V74.625C81 73.8625 81.3029 73.1312 81.8421 72.5921C82.3812 72.0529 83.1125 71.75 83.875 71.75H85.7575L86.4 70.593ZM90 75.75C89.3203 75.749 88.6643 75.9999 88.1585 76.4541C87.6528 76.9083 87.3333 77.5337 87.2615 78.2097C87.1898 78.8856 87.3709 79.5642 87.7699 80.1145C88.169 80.6647 88.7577 81.0477 89.4225 81.1895C90.0083 79.6555 91.151 78.3987 92.6225 77.67C92.4461 77.1128 92.0968 76.6263 91.6253 76.2811C91.1537 75.9359 90.5844 75.7498 90 75.75ZM95.5 89C98.5375 89 101 86.5375 101 83.5C101 80.4625 98.5375 78 95.5 78C92.4625 78 90 80.4625 90 83.5C90 86.5375 92.4625 89 95.5 89ZM95.5 80C95.6326 80 95.7598 80.0527 95.8536 80.1464C95.9473 80.2402 96 80.3674 96 80.5V83H98.5C98.6326 83 98.7598 83.0527 98.8536 83.1464C98.9473 83.2402 99 83.3674 99 83.5C99 83.6326 98.9473 83.7598 98.8536 83.8536C98.7598 83.9473 98.6326 84 98.5 84H96V86.5C96 86.6326 95.9473 86.7598 95.8536 86.8536C95.7598 86.9473 95.6326 87 95.5 87C95.3674 87 95.2402 86.9473 95.1464 86.8536C95.0527 86.7598 95 86.6326 95 86.5V84H92.5C92.3674 84 92.2402 83.9473 92.1464 83.8536C92.0527 83.7598 92 83.6326 92 83.5C92 83.3674 92.0527 83.2402 92.1464 83.1464C92.2402 83.0527 92.3674 83 92.5 83H95V80.5C95 80.3674 95.0527 80.2402 95.1464 80.1464C95.2402 80.0527 95.3674 80 95.5 80Z" fill="black"/>
<path d="M40.0795 129H39.0227C38.9602 128.696 38.8509 128.429 38.6946 128.199C38.5412 127.969 38.3537 127.776 38.1321 127.619C37.9134 127.46 37.6705 127.341 37.4034 127.261C37.1364 127.182 36.858 127.142 36.5682 127.142C36.0398 127.142 35.5611 127.276 35.1321 127.543C34.706 127.81 34.3665 128.203 34.1136 128.723C33.8636 129.243 33.7386 129.881 33.7386 130.636C33.7386 131.392 33.8636 132.03 34.1136 132.55C34.3665 133.07 34.706 133.463 35.1321 133.73C35.5611 133.997 36.0398 134.131 36.5682 134.131C36.858 134.131 37.1364 134.091 37.4034 134.011C37.6705 133.932 37.9134 133.814 38.1321 133.658C38.3537 133.499 38.5412 133.304 38.6946 133.074C38.8509 132.841 38.9602 132.574 39.0227 132.273H40.0795C40 132.719 39.8551 133.118 39.6449 133.47C39.4347 133.822 39.1733 134.122 38.8608 134.369C38.5483 134.614 38.1974 134.8 37.8082 134.928C37.4219 135.055 37.0085 135.119 36.5682 135.119C35.8239 135.119 35.1619 134.938 34.5824 134.574C34.0028 134.21 33.5469 133.693 33.2145 133.023C32.8821 132.352 32.7159 131.557 32.7159 130.636C32.7159 129.716 32.8821 128.92 33.2145 128.25C33.5469 127.58 34.0028 127.062 34.5824 126.699C35.1619 126.335 35.8239 126.153 36.5682 126.153C37.0085 126.153 37.4219 126.217 37.8082 126.345C38.1974 126.473 38.5483 126.661 38.8608 126.908C39.1733 127.152 39.4347 127.45 39.6449 127.803C39.8551 128.152 40 128.551 40.0795 129ZM42.6566 126.273V135H41.6509V126.273H42.6566ZM44.4986 135V128.455H45.5043V135H44.4986ZM45.0099 127.364C44.8139 127.364 44.6449 127.297 44.5028 127.163C44.3636 127.03 44.294 126.869 44.294 126.682C44.294 126.494 44.3636 126.334 44.5028 126.2C44.6449 126.067 44.8139 126 45.0099 126C45.206 126 45.3736 126.067 45.5128 126.2C45.6548 126.334 45.7259 126.494 45.7259 126.682C45.7259 126.869 45.6548 127.03 45.5128 127.163C45.3736 127.297 45.206 127.364 45.0099 127.364ZM50.0053 135.136C49.3917 135.136 48.8633 134.991 48.4201 134.702C47.9769 134.412 47.636 134.013 47.3974 133.504C47.1587 132.996 47.0394 132.415 47.0394 131.761C47.0394 131.097 47.1616 130.51 47.4059 130.001C47.6531 129.49 47.9968 129.091 48.4371 128.804C48.8803 128.514 49.3974 128.369 49.9883 128.369C50.4485 128.369 50.8633 128.455 51.2326 128.625C51.6019 128.795 51.9045 129.034 52.1403 129.341C52.3761 129.648 52.5224 130.006 52.5792 130.415H51.5735C51.4968 130.116 51.3263 129.852 51.0621 129.622C50.8008 129.389 50.4485 129.273 50.0053 129.273C49.6133 129.273 49.2695 129.375 48.9741 129.58C48.6815 129.781 48.4528 130.067 48.288 130.436C48.1261 130.803 48.0451 131.233 48.0451 131.727C48.0451 132.233 48.1246 132.673 48.2837 133.048C48.4457 133.423 48.6729 133.714 48.9656 133.922C49.261 134.129 49.6076 134.233 50.0053 134.233C50.2667 134.233 50.5039 134.188 50.717 134.097C50.93 134.006 51.1104 133.875 51.2582 133.705C51.4059 133.534 51.511 133.33 51.5735 133.091H52.5792C52.5224 133.477 52.3817 133.825 52.1573 134.135C51.9357 134.442 51.6417 134.686 51.2752 134.868C50.9116 135.047 50.4883 135.136 50.0053 135.136ZM54.9869 132.614L54.9698 131.369H55.1744L58.038 128.455H59.2823L56.2312 131.54H56.146L54.9869 132.614ZM54.0494 135V126.273H55.055V135H54.0494ZM58.2085 135L55.6516 131.761L56.3675 131.062L59.4869 135H58.2085ZM65.8778 135.153C65.4631 135.153 65.0866 135.075 64.7486 134.919C64.4105 134.76 64.142 134.531 63.9432 134.233C63.7443 133.932 63.6449 133.568 63.6449 133.142C63.6449 132.767 63.7188 132.463 63.8665 132.23C64.0142 131.994 64.2116 131.81 64.4588 131.676C64.706 131.543 64.9787 131.443 65.277 131.378C65.5781 131.31 65.8807 131.256 66.1847 131.216C66.5824 131.165 66.9048 131.126 67.152 131.101C67.402 131.072 67.5838 131.026 67.6974 130.96C67.8139 130.895 67.8722 130.781 67.8722 130.619V130.585C67.8722 130.165 67.7571 129.838 67.527 129.605C67.2997 129.372 66.9545 129.256 66.4915 129.256C66.0114 129.256 65.6349 129.361 65.3622 129.571C65.0895 129.781 64.8977 130.006 64.7869 130.244L63.8324 129.903C64.0028 129.506 64.2301 129.196 64.5142 128.974C64.8011 128.75 65.1136 128.594 65.4517 128.506C65.7926 128.415 66.1278 128.369 66.4574 128.369C66.6676 128.369 66.9091 128.395 67.1818 128.446C67.4574 128.494 67.723 128.595 67.9787 128.749C68.2372 128.902 68.4517 129.134 68.6222 129.443C68.7926 129.753 68.8778 130.168 68.8778 130.688V135H67.8722V134.114H67.821C67.7528 134.256 67.6392 134.408 67.4801 134.57C67.321 134.732 67.1094 134.869 66.8452 134.983C66.581 135.097 66.2585 135.153 65.8778 135.153ZM66.0312 134.25C66.429 134.25 66.7642 134.172 67.0369 134.016C67.3125 133.859 67.5199 133.658 67.6591 133.411C67.8011 133.163 67.8722 132.903 67.8722 132.631V131.71C67.8295 131.761 67.7358 131.808 67.5909 131.851C67.4489 131.891 67.2841 131.926 67.0966 131.957C66.9119 131.986 66.7315 132.011 66.5554 132.034C66.3821 132.054 66.2415 132.071 66.1335 132.085C65.8722 132.119 65.6278 132.175 65.4006 132.251C65.1761 132.325 64.9943 132.437 64.8551 132.588C64.7188 132.736 64.6506 132.937 64.6506 133.193C64.6506 133.543 64.7798 133.807 65.0384 133.986C65.2997 134.162 65.6307 134.25 66.0312 134.25ZM78.9975 128.455C78.9464 128.023 78.739 127.688 78.3754 127.449C78.0117 127.21 77.5657 127.091 77.0373 127.091C76.6509 127.091 76.3129 127.153 76.0231 127.278C75.7362 127.403 75.5117 127.575 75.3498 127.794C75.1907 128.013 75.1112 128.261 75.1112 128.54C75.1112 128.773 75.1665 128.973 75.2773 129.141C75.391 129.305 75.5359 129.443 75.712 129.554C75.8881 129.662 76.0728 129.751 76.266 129.822C76.4592 129.891 76.6367 129.946 76.7987 129.989L77.685 130.227C77.9123 130.287 78.1651 130.369 78.4435 130.474C78.7248 130.58 78.9933 130.723 79.2489 130.905C79.5075 131.084 79.7205 131.314 79.8881 131.595C80.0558 131.876 80.1396 132.222 80.1396 132.631C80.1396 133.102 80.016 133.528 79.7688 133.909C79.5245 134.29 79.1665 134.592 78.695 134.817C78.2262 135.041 77.6566 135.153 76.9862 135.153C76.3612 135.153 75.82 135.053 75.3626 134.851C74.908 134.649 74.5501 134.368 74.2887 134.007C74.0302 133.646 73.8839 133.227 73.8498 132.75H74.9407C74.9691 133.08 75.0799 133.352 75.2731 133.568C75.4691 133.781 75.7163 133.94 76.0146 134.045C76.3157 134.148 76.6396 134.199 76.9862 134.199C77.3896 134.199 77.7518 134.134 78.0728 134.003C78.3938 133.869 78.6481 133.685 78.8356 133.449C79.0231 133.21 79.1168 132.932 79.1168 132.614C79.1168 132.324 79.0359 132.088 78.8739 131.906C78.712 131.724 78.4989 131.577 78.2347 131.463C77.9705 131.349 77.685 131.25 77.3782 131.165L76.3043 130.858C75.6225 130.662 75.0827 130.382 74.685 130.018C74.2873 129.655 74.0884 129.179 74.0884 128.591C74.0884 128.102 74.2205 127.676 74.4847 127.312C74.7518 126.946 75.1097 126.662 75.5586 126.46C76.0103 126.256 76.5146 126.153 77.0714 126.153C77.6339 126.153 78.1339 126.254 78.5714 126.456C79.0089 126.655 79.3555 126.928 79.6112 127.274C79.8697 127.621 80.006 128.014 80.0202 128.455H78.9975ZM82.7464 131.062V135H81.7408V128.455H82.7124V129.477H82.7976C82.951 129.145 83.1839 128.878 83.4964 128.676C83.8089 128.472 84.2124 128.369 84.7067 128.369C85.1499 128.369 85.5376 128.46 85.87 128.642C86.2024 128.821 86.4609 129.094 86.6456 129.46C86.8303 129.824 86.9226 130.284 86.9226 130.841V135H85.9169V130.909C85.9169 130.395 85.7834 129.994 85.5163 129.707C85.2493 129.418 84.8828 129.273 84.4169 129.273C84.0959 129.273 83.8089 129.342 83.5561 129.482C83.3061 129.621 83.1087 129.824 82.9638 130.091C82.8189 130.358 82.7464 130.682 82.7464 131.062ZM90.6864 135.153C90.2717 135.153 89.8952 135.075 89.5572 134.919C89.2191 134.76 88.9506 134.531 88.7518 134.233C88.5529 133.932 88.4535 133.568 88.4535 133.142C88.4535 132.767 88.5273 132.463 88.6751 132.23C88.8228 131.994 89.0202 131.81 89.2674 131.676C89.5146 131.543 89.7873 131.443 90.0856 131.378C90.3867 131.31 90.6893 131.256 90.9933 131.216C91.391 131.165 91.7134 131.126 91.9606 131.101C92.2106 131.072 92.3924 131.026 92.506 130.96C92.6225 130.895 92.6808 130.781 92.6808 130.619V130.585C92.6808 130.165 92.5657 129.838 92.3356 129.605C92.1083 129.372 91.7631 129.256 91.3001 129.256C90.82 129.256 90.4435 129.361 90.1708 129.571C89.8981 129.781 89.7063 130.006 89.5955 130.244L88.641 129.903C88.8114 129.506 89.0387 129.196 89.3228 128.974C89.6097 128.75 89.9222 128.594 90.2603 128.506C90.6012 128.415 90.9364 128.369 91.266 128.369C91.4762 128.369 91.7177 128.395 91.9904 128.446C92.266 128.494 92.5316 128.595 92.7873 128.749C93.0458 128.902 93.2603 129.134 93.4308 129.443C93.6012 129.753 93.6864 130.168 93.6864 130.688V135H92.6808V134.114H92.6296C92.5614 134.256 92.4478 134.408 92.2887 134.57C92.1296 134.732 91.918 134.869 91.6538 134.983C91.3896 135.097 91.0671 135.153 90.6864 135.153ZM90.8398 134.25C91.2376 134.25 91.5728 134.172 91.8455 134.016C92.1211 133.859 92.3285 133.658 92.4677 133.411C92.6097 133.163 92.6808 132.903 92.6808 132.631V131.71C92.6381 131.761 92.5444 131.808 92.3995 131.851C92.2575 131.891 92.0927 131.926 91.9052 131.957C91.7205 131.986 91.5401 132.011 91.364 132.034C91.1907 132.054 91.0501 132.071 90.9421 132.085C90.6808 132.119 90.4364 132.175 90.2092 132.251C89.9847 132.325 89.8029 132.437 89.6637 132.588C89.5273 132.736 89.4592 132.937 89.4592 133.193C89.4592 133.543 89.5884 133.807 89.8469 133.986C90.1083 134.162 90.4393 134.25 90.8398 134.25ZM95.522 137.455V128.455H96.4936V129.494H96.6129C96.6868 129.381 96.7891 129.236 96.9197 129.06C97.0533 128.881 97.2436 128.722 97.4908 128.582C97.7408 128.44 98.0788 128.369 98.505 128.369C99.0561 128.369 99.5419 128.507 99.9624 128.783C100.383 129.058 100.711 129.449 100.947 129.955C101.183 130.46 101.3 131.057 101.3 131.744C101.3 132.438 101.183 133.038 100.947 133.547C100.711 134.053 100.384 134.445 99.9666 134.723C99.549 134.999 99.0675 135.136 98.522 135.136C98.1016 135.136 97.7649 135.067 97.5121 134.928C97.2592 134.786 97.0646 134.625 96.9283 134.446C96.7919 134.264 96.6868 134.114 96.6129 133.994H96.5277V137.455H95.522ZM96.5107 131.727C96.5107 132.222 96.5831 132.658 96.728 133.036C96.8729 133.411 97.0845 133.705 97.3629 133.918C97.6413 134.128 97.9822 134.233 98.3857 134.233C98.8061 134.233 99.157 134.122 99.4382 133.901C99.7223 133.676 99.9354 133.375 100.077 132.997C100.222 132.616 100.295 132.193 100.295 131.727C100.295 131.267 100.224 130.852 100.082 130.483C99.9425 130.111 99.7308 129.817 99.4467 129.601C99.1655 129.382 98.8118 129.273 98.3857 129.273C97.9766 129.273 97.6328 129.376 97.3544 129.584C97.076 129.788 96.8658 130.075 96.7237 130.445C96.5817 130.811 96.5107 131.239 96.5107 131.727ZM108.681 135.119C108.107 135.119 107.613 135.014 107.198 134.804C106.783 134.594 106.464 134.305 106.239 133.939C106.015 133.572 105.903 133.153 105.903 132.682C105.903 132.318 105.979 131.996 106.133 131.714C106.289 131.43 106.504 131.168 106.776 130.926C107.052 130.682 107.369 130.438 107.727 130.193L108.988 129.256C109.235 129.094 109.433 128.92 109.58 128.736C109.731 128.551 109.806 128.31 109.806 128.011C109.806 127.79 109.708 127.575 109.512 127.368C109.319 127.161 109.065 127.057 108.749 127.057C108.528 127.057 108.332 127.114 108.161 127.227C107.994 127.338 107.862 127.48 107.765 127.653C107.671 127.824 107.624 128 107.624 128.182C107.624 128.386 107.68 128.594 107.79 128.804C107.904 129.011 108.048 129.224 108.221 129.443C108.397 129.659 108.579 129.881 108.766 130.108L112.772 135H111.562L108.255 131.011C107.948 130.642 107.67 130.307 107.42 130.006C107.17 129.705 106.971 129.408 106.823 129.115C106.675 128.822 106.602 128.506 106.602 128.165C106.602 127.773 106.688 127.429 106.862 127.134C107.038 126.835 107.283 126.604 107.599 126.439C107.917 126.271 108.289 126.188 108.715 126.188C109.153 126.188 109.529 126.273 109.844 126.443C110.16 126.611 110.403 126.834 110.573 127.112C110.744 127.388 110.829 127.688 110.829 128.011C110.829 128.429 110.725 128.791 110.518 129.098C110.31 129.405 110.028 129.69 109.67 129.955L107.931 131.25C107.539 131.54 107.273 131.821 107.134 132.094C106.995 132.366 106.925 132.562 106.925 132.682C106.925 132.955 106.996 133.209 107.138 133.445C107.281 133.68 107.481 133.871 107.739 134.016C107.998 134.161 108.3 134.233 108.647 134.233C108.977 134.233 109.298 134.163 109.61 134.024C109.923 133.882 110.205 133.678 110.458 133.411C110.714 133.143 110.915 132.822 111.063 132.447C111.214 132.072 111.289 131.651 111.289 131.182H112.261C112.261 131.761 112.194 132.234 112.06 132.601C111.927 132.967 111.776 133.254 111.609 133.462C111.441 133.669 111.306 133.824 111.204 133.926C111.17 133.969 111.138 134.011 111.11 134.054C111.082 134.097 111.05 134.139 111.016 134.182C110.735 134.497 110.38 134.733 109.951 134.889C109.522 135.043 109.099 135.119 108.681 135.119ZM116.919 127.21V126.273H123.465V127.21H120.721V135H119.664V127.21H116.919ZM124.28 135V128.455H125.251V129.443H125.32C125.439 129.119 125.655 128.857 125.967 128.655C126.28 128.453 126.632 128.352 127.024 128.352C127.098 128.352 127.19 128.354 127.301 128.357C127.412 128.359 127.496 128.364 127.553 128.369V129.392C127.518 129.384 127.44 129.371 127.318 129.354C127.199 129.334 127.072 129.324 126.939 129.324C126.621 129.324 126.337 129.391 126.087 129.524C125.839 129.655 125.643 129.837 125.499 130.07C125.357 130.3 125.286 130.562 125.286 130.858V135H124.28ZM130.671 135.153C130.256 135.153 129.88 135.075 129.542 134.919C129.203 134.76 128.935 134.531 128.736 134.233C128.537 133.932 128.438 133.568 128.438 133.142C128.438 132.767 128.512 132.463 128.659 132.23C128.807 131.994 129.005 131.81 129.252 131.676C129.499 131.543 129.772 131.443 130.07 131.378C130.371 131.31 130.674 131.256 130.978 131.216C131.375 131.165 131.698 131.126 131.945 131.101C132.195 131.072 132.377 131.026 132.49 130.96C132.607 130.895 132.665 130.781 132.665 130.619V130.585C132.665 130.165 132.55 129.838 132.32 129.605C132.093 129.372 131.748 129.256 131.284 129.256C130.804 129.256 130.428 129.361 130.155 129.571C129.882 129.781 129.691 130.006 129.58 130.244L128.625 129.903C128.796 129.506 129.023 129.196 129.307 128.974C129.594 128.75 129.907 128.594 130.245 128.506C130.586 128.415 130.921 128.369 131.25 128.369C131.461 128.369 131.702 128.395 131.975 128.446C132.25 128.494 132.516 128.595 132.772 128.749C133.03 128.902 133.245 129.134 133.415 129.443C133.586 129.753 133.671 130.168 133.671 130.688V135H132.665V134.114H132.614C132.546 134.256 132.432 134.408 132.273 134.57C132.114 134.732 131.902 134.869 131.638 134.983C131.374 135.097 131.051 135.153 130.671 135.153ZM130.824 134.25C131.222 134.25 131.557 134.172 131.83 134.016C132.105 133.859 132.313 133.658 132.452 133.411C132.594 133.163 132.665 132.903 132.665 132.631V131.71C132.623 131.761 132.529 131.808 132.384 131.851C132.242 131.891 132.077 131.926 131.89 131.957C131.705 131.986 131.525 132.011 131.348 132.034C131.175 132.054 131.034 132.071 130.926 132.085C130.665 132.119 130.421 132.175 130.194 132.251C129.969 132.325 129.787 132.437 129.648 132.588C129.512 132.736 129.444 132.937 129.444 133.193C129.444 133.543 129.573 133.807 129.831 133.986C130.093 134.162 130.424 134.25 130.824 134.25ZM138.165 135.136C137.552 135.136 137.023 134.991 136.58 134.702C136.137 134.412 135.796 134.013 135.558 133.504C135.319 132.996 135.2 132.415 135.2 131.761C135.2 131.097 135.322 130.51 135.566 130.001C135.813 129.49 136.157 129.091 136.597 128.804C137.04 128.514 137.558 128.369 138.148 128.369C138.609 128.369 139.023 128.455 139.393 128.625C139.762 128.795 140.065 129.034 140.3 129.341C140.536 129.648 140.683 130.006 140.739 130.415H139.734C139.657 130.116 139.487 129.852 139.222 129.622C138.961 129.389 138.609 129.273 138.165 129.273C137.773 129.273 137.43 129.375 137.134 129.58C136.842 129.781 136.613 130.067 136.448 130.436C136.286 130.803 136.205 131.233 136.205 131.727C136.205 132.233 136.285 132.673 136.444 133.048C136.606 133.423 136.833 133.714 137.126 133.922C137.421 134.129 137.768 134.233 138.165 134.233C138.427 134.233 138.664 134.188 138.877 134.097C139.09 134.006 139.271 133.875 139.418 133.705C139.566 133.534 139.671 133.33 139.734 133.091H140.739C140.683 133.477 140.542 133.825 140.317 134.135C140.096 134.442 139.802 134.686 139.435 134.868C139.072 135.047 138.648 135.136 138.165 135.136ZM143.147 132.614L143.13 131.369H143.335L146.198 128.455H147.442L144.391 131.54H144.306L143.147 132.614ZM142.21 135V126.273H143.215V135H142.21ZM146.369 135L143.812 131.761L144.528 131.062L147.647 135H146.369Z" fill="black"/>
</svg>
