<svg width="57" height="57" viewBox="0 0 57 57" fill="none" xmlns="http://www.w3.org/2000/svg">
<path d="M45.125 9.5H11.875C9.98533 9.5 8.17306 10.2507 6.83686 11.5869C5.50067 12.9231 4.75 14.7353 4.75 16.625V40.375C4.75 42.2647 5.50067 44.0769 6.83686 45.4131C8.17306 46.7493 9.98533 47.5 11.875 47.5H45.125C47.0147 47.5 48.8269 46.7493 50.1631 45.4131C51.4993 44.0769 52.25 42.2647 52.25 40.375V16.625C52.25 14.7353 51.4993 12.9231 50.1631 11.5869C48.8269 10.2507 47.0147 9.5 45.125 9.5ZM43.5337 14.25L28.5 25.5312L13.4663 14.25H43.5337ZM45.125 42.75H11.875C11.2451 42.75 10.641 42.4998 10.1956 42.0544C9.75022 41.609 9.5 41.0049 9.5 40.375V17.2188L27.075 30.4C27.4861 30.7083 27.9861 30.875 28.5 30.875C29.0139 30.875 29.5139 30.7083 29.925 30.4L47.5 17.2188V40.375C47.5 41.0049 47.2498 41.609 46.8044 42.0544C46.359 42.4998 45.7549 42.75 45.125 42.75Z" fill="url(#paint0_linear_1166_5285)"/>
<defs>
<linearGradient id="paint0_linear_1166_5285" x1="21.0845" y1="18.5887" x2="52.954" y2="26.2739" gradientUnits="userSpaceOnUse">
<stop offset="0.00666656" stop-color="#6E9953"/>
<stop offset="0.526667" stop-color="#8AD167"/>
<stop offset="1" stop-color="#9DDB8C"/>
</linearGradient>
</defs>
</svg>
