<svg width="40" height="40" viewBox="0 0 40 40" fill="none" xmlns="http://www.w3.org/2000/svg">
<mask id="path-1-inside-1_919_2238" fill="white">
<path d="M28.4902 8.6377H30.125V33H9.875V8.6377H11.5361V7H13.2236V8.6377H16.625V7H18.3125V8.6377H21.7139V7H23.4014V8.6377H26.8027V7H28.4902V8.6377ZM28.4375 31.375V10.2627H11.5625V31.375H28.4375ZM25.0625 13.5127V15.1377H14.9375V13.5127H25.0625ZM14.9375 28.1504V26.5254H25.0625V28.1504H14.9375ZM14.9375 21.6377V20.0127H25.0625V21.6377H14.9375Z"/>
</mask>
<path d="M28.4902 8.6377H30.125V33H9.875V8.6377H11.5361V7H13.2236V8.6377H16.625V7H18.3125V8.6377H21.7139V7H23.4014V8.6377H26.8027V7H28.4902V8.6377ZM28.4375 31.375V10.2627H11.5625V31.375H28.4375ZM25.0625 13.5127V15.1377H14.9375V13.5127H25.0625ZM14.9375 28.1504V26.5254H25.0625V28.1504H14.9375ZM14.9375 21.6377V20.0127H25.0625V21.6377H14.9375Z" fill="#8AD167"/>
<path d="M28.4902 8.6377H25.9902C25.9902 10.0184 27.1095 11.1377 28.4902 11.1377V8.6377ZM30.125 8.6377H32.625C32.625 7.25698 31.5057 6.1377 30.125 6.1377V8.6377ZM30.125 33V35.5C31.5057 35.5 32.625 34.3807 32.625 33H30.125ZM9.875 33H7.375C7.375 34.3807 8.49429 35.5 9.875 35.5V33ZM9.875 8.6377V6.1377C8.49429 6.1377 7.375 7.25698 7.375 8.6377H9.875ZM11.5361 8.6377V11.1377C12.9168 11.1377 14.0361 10.0184 14.0361 8.6377H11.5361ZM11.5361 7V4.5C10.1554 4.5 9.03613 5.61929 9.03613 7L11.5361 7ZM13.2236 7H15.7236C15.7236 5.61929 14.6043 4.5 13.2236 4.5V7ZM13.2236 8.6377H10.7236C10.7236 10.0184 11.8429 11.1377 13.2236 11.1377V8.6377ZM16.625 8.6377V11.1377C18.0057 11.1377 19.125 10.0184 19.125 8.6377H16.625ZM16.625 7V4.5C15.2443 4.5 14.125 5.61929 14.125 7L16.625 7ZM18.3125 7H20.8125C20.8125 5.61929 19.6932 4.5 18.3125 4.5V7ZM18.3125 8.6377H15.8125C15.8125 10.0184 16.9318 11.1377 18.3125 11.1377V8.6377ZM21.7139 8.6377V11.1377C23.0946 11.1377 24.2139 10.0184 24.2139 8.6377H21.7139ZM21.7139 7V4.5C20.3332 4.5 19.2139 5.61929 19.2139 7L21.7139 7ZM23.4014 7H25.9014C25.9014 5.61929 24.7821 4.5 23.4014 4.5V7ZM23.4014 8.6377H20.9014C20.9014 10.0184 22.0207 11.1377 23.4014 11.1377V8.6377ZM26.8027 8.6377V11.1377C28.1834 11.1377 29.3027 10.0184 29.3027 8.6377H26.8027ZM26.8027 7V4.5C25.422 4.5 24.3027 5.61929 24.3027 7L26.8027 7ZM28.4902 7H30.9902C30.9902 5.61929 29.8709 4.5 28.4902 4.5V7ZM28.4375 31.375V33.875C29.8182 33.875 30.9375 32.7557 30.9375 31.375H28.4375ZM28.4375 10.2627H30.9375C30.9375 8.88198 29.8182 7.7627 28.4375 7.7627V10.2627ZM11.5625 10.2627V7.7627C10.1818 7.7627 9.0625 8.88198 9.0625 10.2627H11.5625ZM11.5625 31.375H9.0625C9.0625 32.7557 10.1818 33.875 11.5625 33.875V31.375ZM25.0625 13.5127H27.5625C27.5625 12.132 26.4432 11.0127 25.0625 11.0127V13.5127ZM25.0625 15.1377V17.6377C26.4432 17.6377 27.5625 16.5184 27.5625 15.1377H25.0625ZM14.9375 15.1377H12.4375C12.4375 16.5184 13.5568 17.6377 14.9375 17.6377V15.1377ZM14.9375 13.5127V11.0127C13.5568 11.0127 12.4375 12.132 12.4375 13.5127H14.9375ZM14.9375 28.1504H12.4375C12.4375 29.5311 13.5568 30.6504 14.9375 30.6504V28.1504ZM14.9375 26.5254V24.0254C13.5568 24.0254 12.4375 25.1447 12.4375 26.5254H14.9375ZM25.0625 26.5254H27.5625C27.5625 25.1447 26.4432 24.0254 25.0625 24.0254V26.5254ZM25.0625 28.1504V30.6504C26.4432 30.6504 27.5625 29.5311 27.5625 28.1504H25.0625ZM14.9375 21.6377H12.4375C12.4375 23.0184 13.5568 24.1377 14.9375 24.1377V21.6377ZM14.9375 20.0127V17.5127C13.5568 17.5127 12.4375 18.632 12.4375 20.0127H14.9375ZM25.0625 20.0127H27.5625C27.5625 18.632 26.4432 17.5127 25.0625 17.5127V20.0127ZM25.0625 21.6377V24.1377C26.4432 24.1377 27.5625 23.0184 27.5625 21.6377H25.0625ZM28.4902 11.1377H30.125V6.1377H28.4902V11.1377ZM27.625 8.6377V33H32.625V8.6377H27.625ZM30.125 30.5H9.875V35.5H30.125V30.5ZM12.375 33V8.6377H7.375V33H12.375ZM9.875 11.1377H11.5361V6.1377H9.875V11.1377ZM14.0361 8.6377V7H9.03613V8.6377H14.0361ZM11.5361 9.5H13.2236V4.5H11.5361V9.5ZM10.7236 7V8.6377H15.7236V7H10.7236ZM13.2236 11.1377H16.625V6.1377H13.2236V11.1377ZM19.125 8.6377V7H14.125V8.6377H19.125ZM16.625 9.5H18.3125V4.5H16.625V9.5ZM15.8125 7V8.6377H20.8125V7H15.8125ZM18.3125 11.1377H21.7139V6.1377H18.3125V11.1377ZM24.2139 8.6377V7H19.2139V8.6377H24.2139ZM21.7139 9.5H23.4014V4.5H21.7139V9.5ZM20.9014 7V8.6377H25.9014V7H20.9014ZM23.4014 11.1377H26.8027V6.1377H23.4014V11.1377ZM29.3027 8.6377V7H24.3027V8.6377H29.3027ZM26.8027 9.5H28.4902V4.5H26.8027V9.5ZM25.9902 7V8.6377H30.9902V7H25.9902ZM30.9375 31.375V10.2627H25.9375V31.375H30.9375ZM28.4375 7.7627H11.5625V12.7627H28.4375V7.7627ZM9.0625 10.2627V31.375H14.0625V10.2627H9.0625ZM11.5625 33.875H28.4375V28.875H11.5625V33.875ZM22.5625 13.5127V15.1377H27.5625V13.5127H22.5625ZM25.0625 12.6377H14.9375V17.6377H25.0625V12.6377ZM17.4375 15.1377V13.5127H12.4375V15.1377H17.4375ZM14.9375 16.0127H25.0625V11.0127H14.9375V16.0127ZM17.4375 28.1504V26.5254H12.4375V28.1504H17.4375ZM14.9375 29.0254H25.0625V24.0254H14.9375V29.0254ZM22.5625 26.5254V28.1504H27.5625V26.5254H22.5625ZM25.0625 25.6504H14.9375V30.6504H25.0625V25.6504ZM17.4375 21.6377V20.0127H12.4375V21.6377H17.4375ZM14.9375 22.5127H25.0625V17.5127H14.9375V22.5127ZM22.5625 20.0127V21.6377H27.5625V20.0127H22.5625ZM25.0625 19.1377H14.9375V24.1377H25.0625V19.1377Z" fill="#8AD167" mask="url(#path-1-inside-1_919_2238)"/>
</svg>
