<svg width="74" height="74" viewBox="0 0 74 74" fill="none" xmlns="http://www.w3.org/2000/svg">
<path fill-rule="evenodd" clip-rule="evenodd" d="M13.875 62.4375C13.2617 62.4375 12.6735 62.1939 12.2398 61.7602C11.8061 61.3265 11.5625 60.7383 11.5625 60.125V13.875C11.5625 13.2617 11.8061 12.6735 12.2398 12.2398C12.6735 11.8061 13.2617 11.5625 13.875 11.5625H56.6563C57.5762 11.5625 58.4585 11.197 59.109 10.5465C59.7595 9.89601 60.125 9.01372 60.125 8.09375C60.125 7.17378 59.7595 6.29149 59.109 5.64097C58.4585 4.99046 57.5762 4.625 56.6563 4.625H13.875C11.4217 4.625 9.06897 5.59955 7.33426 7.33426C5.59955 9.06897 4.625 11.4217 4.625 13.875V60.125C4.625 62.5783 5.59955 64.931 7.33426 66.6657C9.06897 68.4004 11.4217 69.375 13.875 69.375H60.125C62.5783 69.375 64.931 68.4004 66.6657 66.6657C68.4005 64.931 69.375 62.5783 69.375 60.125V45.0938C69.375 44.1738 69.0096 43.2915 68.359 42.641C67.7085 41.9905 66.8262 41.625 65.9063 41.625C64.9863 41.625 64.104 41.9905 63.4535 42.641C62.803 43.2915 62.4375 44.1738 62.4375 45.0938V60.125C62.4375 60.7383 62.1939 61.3265 61.7602 61.7602C61.3265 62.1939 60.7383 62.4375 60.125 62.4375H13.875ZM72.9825 21.645C73.5952 20.9874 73.9288 20.1177 73.9129 19.2191C73.8971 18.3204 73.533 17.463 72.8975 16.8275C72.262 16.192 71.4046 15.8279 70.5059 15.8121C69.6073 15.7962 68.7376 16.1298 68.08 16.7425L42.3743 42.4436L33.7116 33.4896C33.3956 33.1594 33.0174 32.8949 32.5987 32.7113C32.1801 32.5277 31.7293 32.4286 31.2723 32.4199C30.8153 32.4111 30.361 32.4927 29.9356 32.6601C29.5102 32.8274 29.1221 33.0772 28.7936 33.395C28.4651 33.7129 28.2026 34.0925 28.0213 34.5122C27.84 34.9318 27.7435 35.3831 27.7372 35.8402C27.7309 36.2973 27.815 36.7511 27.9847 37.1755C28.1543 37.6 28.4062 37.9867 28.7259 38.3135L39.8398 49.802C40.1595 50.1337 40.5422 50.3983 40.9653 50.5805C41.3885 50.7626 41.8437 50.8587 42.3044 50.863C42.7651 50.8673 43.2221 50.7797 43.6486 50.6055C44.0751 50.4313 44.4626 50.1739 44.7885 49.8483L72.9825 21.645Z" fill="url(#paint0_linear_1665_6523)"/>
<defs>
<linearGradient id="paint0_linear_1665_6523" x1="28.4522" y1="20.1116" x2="75.633" y2="29.8516" gradientUnits="userSpaceOnUse">
<stop offset="0.00666656" stop-color="#6E9953"/>
<stop offset="0.526667" stop-color="#8AD167"/>
<stop offset="1" stop-color="#9DDB8C"/>
</linearGradient>
</defs>
</svg>
