<svg width="29" height="24" viewBox="0 0 29 24" fill="none" xmlns="http://www.w3.org/2000/svg">
<path d="M22.034 18.9842C20.0162 18.5135 19.3136 16.088 20.4843 13.6371C21.1203 12.3937 21.9999 11.2909 23.0708 10.3944L23.434 10.0925L23.4445 10.5081C23.5546 11.4979 23.8515 12.4578 24.3195 13.337C24.6011 13.9559 24.8445 14.5914 25.0483 15.2401C25.2592 15.992 25.2286 16.7912 24.9608 17.5247C24.6627 18.0677 24.2093 18.5094 23.6588 18.7935C23.1425 18.9951 22.583 19.0608 22.034 18.9842ZM22.4435 14.8254C22.5887 14.6582 22.6246 14.4377 22.6342 13.6572L22.6465 12.6947L22.4111 12.8794C22.1666 13.0731 21.9719 13.3224 21.8432 13.6065C21.7144 13.8907 21.6553 14.2014 21.6708 14.513C21.7522 14.7624 22.0051 15.038 22.1503 15.0327C22.2668 14.9948 22.3692 14.9229 22.4443 14.8262L22.4435 14.8254ZM4.32834 23.0941C3.74543 22.9798 3.19096 22.751 2.69702 22.421C2.20307 22.0911 1.77944 21.6664 1.45063 21.1717C1.12182 20.677 0.894351 20.122 0.781381 19.5388C0.66841 18.9556 0.672179 18.3558 0.79247 17.7741C1.08909 16.5255 1.02784 16.5981 7.47309 9.85623L13.5465 3.50373L15.2685 5.14523L8.26847 12.4532L14.1222 12.3272L18.2592 8.01173L19.9742 9.66198L13.8921 15.997C8.31222 21.8087 7.75922 22.3574 7.19222 22.6382C6.31392 23.0988 5.3092 23.2598 4.33097 23.0967L4.32834 23.0941ZM21.4346 8.52886C21.2745 8.43261 19.6312 6.89961 17.7832 5.12073L14.4215 1.88761L14.411 1.39673C14.3914 1.25691 14.4014 1.11454 14.4405 0.978867C14.4795 0.843191 14.5467 0.717251 14.6376 0.609231C14.7739 0.42511 14.962 0.2857 15.1778 0.20873C15.3936 0.13176 15.6274 0.120709 15.8495 0.176981C18.4361 2.36297 20.8822 4.71001 23.1732 7.20411C23.2389 7.43145 23.2343 7.67335 23.1598 7.89798C23.0854 8.12261 22.9446 8.31944 22.7562 8.46254C22.5677 8.60565 22.3403 8.68833 22.1039 8.6997C21.8676 8.71106 21.6333 8.65059 21.432 8.52623L21.4346 8.52886Z" fill="#8AD167"/>
<path d="M2.52147 18.3175C2.21259 20.3099 3.36059 21.6626 5.53059 21.3677C5.75372 21.1332 8.33934 18.4339 14.1485 12.3412C11.226 12.4042 11.261 12.2765 8.33759 12.3412C2.49172 18.4015 2.37534 18.3577 2.52147 18.3175Z" fill="#8AD167"/>
<path d="M22.7673 9.54494C22.7673 9.54494 26.2673 13.4824 26.2673 15.8158C26.2673 17.7466 24.6981 19.3158 22.7673 19.3158C20.8365 19.3158 19.2673 17.7466 19.2673 15.8158C19.2673 13.4824 22.7673 9.54494 22.7673 9.54494ZM28.6006 11.7324V15.2324H27.434V11.7324H28.6006ZM27.434 17.5658H28.6006V16.3991H27.434V17.5658Z" fill="#FF2424"/>
</svg>
