<svg width="55" height="55" viewBox="0 0 55 55" fill="none" xmlns="http://www.w3.org/2000/svg">
<path d="M41.25 33V41.25H33V46.75H41.25V55H46.75V46.75H55V41.25H46.75V33H41.25ZM28.325 49.5H5.5C2.475 49.5 0 47.025 0 44V5.5C0 2.475 2.475 0 5.5 0H44C47.025 0 49.5 2.475 49.5 5.5V28.325C47.85 27.775 45.925 27.5 44 27.5C40.975 27.5 37.95 28.325 35.475 29.975L31.625 24.75L22 37.125L15.125 28.875L5.5 41.25H27.775C27.5 42.075 27.5 43.175 27.5 44C27.5 45.925 27.775 47.85 28.325 49.5Z" fill="#BABABA"/>
</svg>
