<svg width="23" height="27" viewBox="0 0 23 27" fill="none" xmlns="http://www.w3.org/2000/svg">
<path d="M11.5064 0C12.5727 0 13.5953 0.426695 14.3493 1.18622C15.1033 1.94574 15.5268 2.97587 15.5268 4.05C15.5268 5.12413 15.1033 6.15426 14.3493 6.91378C13.5953 7.67331 12.5727 8.1 11.5064 8.1C10.4401 8.1 9.41746 7.67331 8.66348 6.91378C7.9095 6.15426 7.48592 5.12413 7.48592 4.05C7.48592 2.97587 7.9095 1.94574 8.66348 1.18622C9.41746 0.426695 10.4401 0 11.5064 0ZM22.2276 21.6L19.5473 14.256C19.0782 12.9195 18.6628 11.7585 16.867 10.8C15.0176 9.855 13.6774 9.45 11.5064 9.45C9.32193 9.45 7.99517 9.855 6.14576 10.8C4.34996 11.7585 3.93451 12.9195 3.46546 14.256L0.785152 21.6C0.356303 23.4225 3.94791 24.894 6.29318 25.9065V22.95C6.29318 21.6675 7.44571 20.763 9.75078 20.2095C9.9652 20.1555 10.1662 20.1285 10.327 20.1015C9.60336 18.9945 9.30853 18.009 9.28172 17.928L11.6538 17.118C11.6672 17.145 12.3507 19.2645 13.9723 20.331C14.2537 20.4255 14.5351 20.5335 14.8032 20.655C15.8351 21.114 16.4515 21.708 16.6526 22.4235C14.8568 23.139 13.1414 23.5035 11.5064 23.5035L10.1662 23.3685V26.919L11.5064 27C13.3424 27 15.0846 26.622 16.7196 25.9065C19.0648 24.894 22.5626 23.1255 22.2276 21.6ZM16.1969 20.25C15.6638 20.25 15.1525 20.0367 14.7755 19.6569C14.3985 19.2771 14.1867 18.7621 14.1867 18.225C14.1867 17.6879 14.3985 17.1729 14.7755 16.7931C15.1525 16.4133 15.6638 16.2 16.1969 16.2C16.7301 16.2 17.2414 16.4133 17.6184 16.7931C17.9953 17.1729 18.2071 17.6879 18.2071 18.225C18.2071 18.7621 17.9953 19.2771 17.6184 19.6569C17.2414 20.0367 16.7301 20.25 16.1969 20.25Z" fill="#8AD167"/>
</svg>
