<svg width="23" height="23" viewBox="0 0 23 23" fill="none" xmlns="http://www.w3.org/2000/svg">
<path d="M20.25 1H2.75C2.28587 1 1.84075 1.18437 1.51256 1.51256C1.18437 1.84075 1 2.28587 1 2.75V20.25C1 20.7141 1.18437 21.1592 1.51256 21.4874C1.84075 21.8156 2.28587 22 2.75 22H20.25C20.7141 22 21.1592 21.8156 21.4874 21.4874C21.8156 21.1592 22 20.7141 22 20.25V2.75C22 2.28587 21.8156 1.84075 21.4874 1.51256C21.1592 1.18437 20.7141 1 20.25 1Z" stroke="#8AD167" stroke-width="2"/>
<path d="M13.425 4.50002C12.3616 4.50002 11.5 5.33711 11.5 6.36902C11.5 8.23861 13.775 9.93785 15 10.3334C16.225 9.93785 18.5 8.23919 18.5 6.36902C18.5 5.33711 17.6384 4.50002 16.575 4.50002C16.2684 4.49857 15.9658 4.56982 15.692 4.70792C15.4182 4.84602 15.1811 5.04705 15 5.29452C14.8189 5.04705 14.5818 4.84602 14.308 4.70792C14.0342 4.56982 13.7316 4.49857 13.425 4.50002Z" stroke="#8AD167" stroke-width="2" stroke-linecap="round" stroke-linejoin="round"/>
</svg>
