<svg width="40" height="40" viewBox="0 0 40 40" fill="none" xmlns="http://www.w3.org/2000/svg">
<path d="M6.66675 20.5002C6.66675 17.185 7.98371 14.0056 10.3279 11.6614C12.6721 9.3172 15.8515 8.00024 19.1667 8.00024C22.482 8.00024 25.6614 9.3172 28.0056 11.6614C30.3498 14.0056 31.6667 17.185 31.6667 20.5002V28.4534C31.6667 29.7784 31.6667 30.4377 31.4699 30.9674C31.3133 31.3872 31.0684 31.7683 30.7516 32.0851C30.4348 32.4019 30.0537 32.6468 29.6339 32.8034C29.1042 33.0002 28.4433 33.0002 27.1199 33.0002H19.1667C15.8515 33.0002 12.6721 31.6833 10.3279 29.3391C7.98371 26.9949 6.66675 23.8155 6.66675 20.5002Z" stroke="#8AD167" stroke-width="2"/>
<path d="M14.4792 18.938H23.8542M19.1667 25.188H23.8542" stroke="#8AD167" stroke-width="2" stroke-linecap="round" stroke-linejoin="round"/>
</svg>
