<svg width="40" height="40" viewBox="0 0 40 40" fill="none" xmlns="http://www.w3.org/2000/svg">
<path d="M33.3334 31.6666V17.4999C33.3334 17.2412 33.2732 16.986 33.1575 16.7546C33.0417 16.5231 32.8737 16.3218 32.6667 16.1666L21.0001 7.41658C20.7116 7.20021 20.3607 7.08325 20.0001 7.08325C19.6395 7.08325 19.2886 7.20021 19.0001 7.41658L7.33341 16.1666C7.12642 16.3218 6.95842 16.5231 6.8427 16.7546C6.72699 16.986 6.66675 17.2412 6.66675 17.4999V31.6666C6.66675 32.1086 6.84234 32.5325 7.1549 32.8451C7.46746 33.1577 7.89139 33.3333 8.33341 33.3333H15.0001C15.4421 33.3333 15.866 33.1577 16.1786 32.8451C16.4912 32.5325 16.6667 32.1086 16.6667 31.6666V26.6666C16.6667 26.2246 16.8423 25.8006 17.1549 25.4881C17.4675 25.1755 17.8914 24.9999 18.3334 24.9999H21.6667C22.1088 24.9999 22.5327 25.1755 22.8453 25.4881C23.1578 25.8006 23.3334 26.2246 23.3334 26.6666V31.6666C23.3334 32.1086 23.509 32.5325 23.8216 32.8451C24.1341 33.1577 24.5581 33.3333 25.0001 33.3333H31.6667C32.1088 33.3333 32.5327 33.1577 32.8453 32.8451C33.1578 32.5325 33.3334 32.1086 33.3334 31.6666Z" stroke="#8AD167" stroke-width="2" stroke-linecap="round" stroke-linejoin="round"/>
</svg>
