<svg width="25" height="25" viewBox="0 0 25 25" fill="none" xmlns="http://www.w3.org/2000/svg">
<path d="M10.6176 16.25H13.1176L13.3051 14.6875C13.4718 14.625 13.6231 14.5521 13.7589 14.4688C13.8947 14.3854 14.0143 14.2917 14.1176 14.1875L15.5551 14.8125L16.8051 12.6875L15.5551 11.75C15.5968 11.5833 15.6176 11.4167 15.6176 11.25C15.6176 11.0833 15.5968 10.9167 15.5551 10.75L16.8051 9.8125L15.5551 7.6875L14.1176 8.3125C14.0135 8.20833 13.8935 8.11458 13.7576 8.03125C13.6218 7.94792 13.471 7.875 13.3051 7.8125L13.1176 6.25H10.6176L10.4301 7.8125C10.2635 7.875 10.1122 7.94792 9.9764 8.03125C9.84056 8.11458 9.72098 8.20833 9.61765 8.3125L8.18015 7.6875L6.93015 9.8125L8.18015 10.75C8.13848 10.9167 8.11765 11.0833 8.11765 11.25C8.11765 11.4167 8.13848 11.5833 8.18015 11.75L6.93015 12.6875L8.18015 14.8125L9.61765 14.1875C9.72181 14.2917 9.84181 14.3854 9.97764 14.4688C10.1135 14.5521 10.2643 14.625 10.4301 14.6875L10.6176 16.25ZM11.8676 13.125C11.3468 13.125 10.9043 12.9429 10.5401 12.5787C10.176 12.2146 9.99348 11.7717 9.99265 11.25C9.99181 10.7283 10.1743 10.2858 10.5401 9.9225C10.906 9.55917 11.3485 9.37667 11.8676 9.375C12.3868 9.37333 12.8297 9.55583 13.1964 9.9225C13.5631 10.2892 13.7451 10.7317 13.7426 11.25C13.7401 11.7683 13.5581 12.2112 13.1964 12.5787C12.8347 12.9462 12.3918 13.1283 11.8676 13.125ZM4.36765 25V19.625C3.18015 18.5417 2.25848 17.2763 1.60265 15.8288C0.946812 14.3813 0.618479 12.855 0.617645 11.25C0.617645 8.125 1.7114 5.46875 3.8989 3.28125C6.0864 1.09375 8.74265 0 11.8676 0C14.4718 0 16.7793 0.765833 18.7901 2.2975C20.801 3.82917 22.1081 5.82375 22.7114 8.28125L24.3364 14.6875C24.4406 15.0833 24.3676 15.4429 24.1176 15.7662C23.8676 16.0896 23.5343 16.2508 23.1176 16.25H20.6176V20C20.6176 20.6875 20.3731 21.2763 19.8839 21.7663C19.3947 22.2563 18.806 22.5008 18.1176 22.5H15.6176V25H4.36765Z" fill="#8AD167"/>
</svg>
