<svg width="29" height="25" viewBox="0 0 29 25" fill="none" xmlns="http://www.w3.org/2000/svg">
<path d="M24.5 9.5C25.5605 9.49868 26.5771 9.07682 27.327 8.32697C28.0768 7.57711 28.4987 6.56046 28.5 5.5V2.5H25.5C24.4762 2.50162 23.4923 2.89773 22.753 3.606C22.2353 2.66575 21.4748 1.88159 20.5509 1.33528C19.6269 0.788975 18.5734 0.500524 17.5 0.5H14.5V3.5C14.5019 5.09073 15.1346 6.61578 16.2594 7.74059C17.3842 8.86541 18.9093 9.49815 20.5 9.5H21.5V22.5H9.5V17.5H10.5C11.5605 17.4987 12.5771 17.0768 13.327 16.327C14.0768 15.5771 14.4987 14.5605 14.5 13.5V10.5H11.5C10.4762 10.5016 9.49232 10.8977 8.753 11.606C8.23528 10.6657 7.47481 9.88159 6.55087 9.33528C5.62694 8.78898 4.57336 8.50052 3.5 8.5H0.5V11.5C0.501853 13.0907 1.13459 14.6158 2.25941 15.7406C3.38422 16.8654 4.90927 17.4981 6.5 17.5H7.5V22.5H0.5V24.5H28.5V22.5H23.5V9.5H24.5ZM23.5 6.5C23.5 5.96957 23.7107 5.46086 24.0858 5.08579C24.4609 4.71071 24.9696 4.5 25.5 4.5H26.5V5.5C26.5 6.03043 26.2893 6.53914 25.9142 6.91421C25.5391 7.28929 25.0304 7.5 24.5 7.5H23.5V6.5ZM9.5 14.5C9.5 13.9696 9.71071 13.4609 10.0858 13.0858C10.4609 12.7107 10.9696 12.5 11.5 12.5H12.5V13.5C12.5 14.0304 12.2893 14.5391 11.9142 14.9142C11.5391 15.2893 11.0304 15.5 10.5 15.5H9.5V14.5ZM7.5 15.5H6.5C5.43954 15.4987 4.42289 15.0768 3.67303 14.327C2.92318 13.5771 2.50132 12.5605 2.5 11.5V10.5H3.5C4.56046 10.5013 5.57711 10.9232 6.32697 11.673C7.07682 12.4229 7.49868 13.4395 7.5 14.5V15.5ZM21.5 7.5H20.5C19.4395 7.49868 18.4229 7.07682 17.673 6.32697C16.9232 5.57711 16.5013 4.56046 16.5 3.5V2.5H17.5C18.5605 2.50132 19.5771 2.92318 20.327 3.67303C21.0768 4.42289 21.4987 5.43954 21.5 6.5V7.5Z" fill="#8AD167"/>
</svg>
