<svg width="35" height="35" viewBox="0 0 35 35" fill="none" xmlns="http://www.w3.org/2000/svg">
<g clip-path="url(#clip0_656_995)">
<path d="M35 17.5C35 27.165 27.165 35 17.5 35C7.83502 35 0 27.165 0 17.5C0 7.83502 7.83502 0 17.5 0C27.165 0 35 7.83502 35 17.5ZM2.8 17.5C2.8 25.6186 9.38141 32.2 17.5 32.2C25.6186 32.2 32.2 25.6186 32.2 17.5C32.2 9.38141 25.6186 2.8 17.5 2.8C9.38141 2.8 2.8 9.38141 2.8 17.5Z" fill="black"/>
<path d="M4.01602 28.6549C1.89924 26.0962 0.554202 22.988 0.137993 19.6933C-0.278217 16.3987 0.251588 13.0536 1.66553 10.0489C3.07947 7.04409 5.31917 4.50365 8.12303 2.72426C10.9269 0.944874 14.1792 1.45158e-07 17.5 0V2.8C14.7105 2.8 11.9786 3.59369 9.62335 5.08838C7.2681 6.58306 5.38675 8.71704 4.19904 11.241C3.01133 13.7651 2.5663 16.5749 2.91591 19.3424C3.26553 22.1099 4.39537 24.7208 6.17345 26.8701L4.01602 28.6549Z" fill="#151515"/>
</g>
<defs>
<clipPath id="clip0_656_995">
<rect width="35" height="35" fill="white"/>
</clipPath>
</defs>
</svg>
