<svg width="40" height="40" viewBox="0 0 40 40" fill="none" xmlns="http://www.w3.org/2000/svg">
<path d="M30.6584 5.99976L22.4202 9.08332L25.3768 10.9413C20.0952 17.5708 12.455 21.6544 5.99976 23.2087L7.82847 26.529C15.0819 24.1725 22.7612 19.9218 27.7074 12.412L29.9598 13.8271L30.6584 5.99976ZM31.0888 12.5011L30.8205 15.5541L27.9533 13.7491C27.8527 13.8995 27.7465 14.0443 27.6403 14.1947V31.9998H31.9998V12.5011H31.0888ZM22.6717 19.6321C21.9619 20.2449 21.2298 20.8243 20.4864 21.3702V31.9998H24.8458V19.6321H22.6717ZM15.7581 24.3117C14.9533 24.7351 14.1485 25.1251 13.3325 25.4928V31.9998H17.6919V24.3117H15.7581ZM6.1786 26.763V31.9998H10.538V26.763H10.2206C9.39228 27.0694 8.56455 27.3535 7.74185 27.6154L7.34726 27.7379L6.81072 26.763H6.1786Z" fill="#8AD167"/>
</svg>
