<svg width="16" height="16" viewBox="0 0 16 16" fill="none" xmlns="http://www.w3.org/2000/svg">
<path d="M15.8514 15.1487C15.9503 15.2477 15.9998 15.3649 15.9998 15.5003C15.9998 15.6357 15.9503 15.7529 15.8514 15.8519C15.7524 15.9508 15.6352 16.0003 15.4998 16.0003C15.3644 16.0003 15.2472 15.9508 15.1482 15.8519L9.01543 9.72685C8.52063 10.1435 7.97376 10.4586 7.3748 10.6722C6.77584 10.8857 6.15084 10.9951 5.4998 11.0003C4.99459 11.0003 4.50761 10.9352 4.03886 10.805C3.57011 10.6748 3.13261 10.4899 2.72636 10.2503C2.32011 10.0107 1.94772 9.72425 1.60918 9.39091C1.27063 9.05758 0.984176 8.68779 0.749801 8.28154C0.515426 7.87529 0.33053 7.43519 0.195114 6.96123C0.0596969 6.48727 -0.00540726 6.00029 -0.000198929 5.50029C-0.000198929 4.99508 0.0649052 4.5081 0.195114 4.03935C0.325322 3.5706 0.510218 3.1331 0.749801 2.72685C0.989384 2.3206 1.27584 1.94821 1.60918 1.60966C1.94251 1.27112 2.3123 0.984664 2.71855 0.750289C3.1248 0.515914 3.56491 0.331019 4.03886 0.195602C4.51282 0.0601852 4.9998 -0.00491898 5.4998 0.000289352C6.00501 0.000289352 6.49199 0.0653935 6.96074 0.195602C7.42949 0.32581 7.86699 0.510706 8.27324 0.750289C8.67949 0.989873 9.05188 1.27633 9.39043 1.60966C9.72897 1.943 10.0154 2.31279 10.2498 2.71904C10.4842 3.12529 10.6691 3.56539 10.8045 4.03935C10.9399 4.51331 11.005 5.00029 10.9998 5.50029C10.9998 6.14612 10.893 6.76852 10.6795 7.36748C10.4659 7.96644 10.1482 8.51591 9.72636 9.01591L15.8514 15.1487ZM5.9998 8.00029H4.9998V9.00029H5.9998V8.00029ZM6.0623 7.00029C6.0623 6.84404 6.11178 6.70341 6.21074 6.57841C6.3097 6.45341 6.43209 6.33102 6.57793 6.21123C6.72376 6.09144 6.88522 5.96644 7.0623 5.83623C7.23938 5.70602 7.39824 5.56019 7.53886 5.39873C7.67949 5.23727 7.80449 5.05498 7.91386 4.85185C8.02324 4.64873 8.07272 4.40914 8.0623 4.1331C8.0623 3.79456 7.98678 3.48987 7.83574 3.21904C7.6847 2.94821 7.48938 2.71904 7.2498 2.53154C7.01022 2.34404 6.73678 2.19821 6.42949 2.09404C6.1222 1.98987 5.8123 1.93779 5.4998 1.93779C5.19251 1.93779 4.88782 1.97946 4.58574 2.06279C4.28366 2.14612 4.00761 2.27633 3.75761 2.45341C3.50761 2.6305 3.3097 2.84404 3.16386 3.09404C3.01803 3.34404 2.94251 3.64612 2.9373 4.00029H4.0623C4.0623 3.82841 4.10918 3.68258 4.20293 3.56279C4.29668 3.443 4.41907 3.34664 4.57011 3.27373C4.72116 3.20081 4.87741 3.14612 5.03886 3.10966C5.20032 3.07321 5.35397 3.05758 5.4998 3.06279C5.65084 3.06279 5.8097 3.08623 5.97636 3.1331C6.14303 3.17998 6.29928 3.24769 6.44511 3.33623C6.59095 3.42477 6.70813 3.53414 6.79668 3.66435C6.88522 3.79456 6.93209 3.95081 6.9373 4.1331C6.9373 4.28935 6.88782 4.42998 6.78886 4.55498C6.68991 4.67998 6.56751 4.80237 6.42168 4.92216C6.27584 5.04196 6.11438 5.16696 5.9373 5.29716C5.76022 5.42737 5.60136 5.57321 5.46074 5.73466C5.32011 5.89612 5.19511 6.07841 5.08574 6.28154C4.97636 6.48466 4.92688 6.72425 4.9373 7.00029H6.0623Z" fill="white"/>
</svg>
