<svg width="16" height="16" viewBox="0 0 16 16" fill="none" xmlns="http://www.w3.org/2000/svg">
<path d="M16 3V9C15.9375 8.88021 15.8698 8.7526 15.7969 8.61719C15.724 8.48177 15.6432 8.34896 15.5547 8.21875C15.4661 8.08854 15.375 7.95833 15.2812 7.82812C15.1875 7.69792 15.0938 7.58854 15 7.5V5L8 8.5L1 5V12H8.5L9 13H0V3H16ZM14.8828 4H1.11719L8 7.44531L14.8828 4ZM14.125 12.3984C14.4115 12.5495 14.6693 12.7344 14.8984 12.9531C15.1276 13.1719 15.3255 13.4167 15.4922 13.6875C15.6589 13.9583 15.7839 14.2448 15.8672 14.5469C15.9505 14.849 15.9948 15.1667 16 15.5V16H15V15.5C15 15.1562 14.9349 14.8333 14.8047 14.5312C14.6745 14.2292 14.4948 13.9661 14.2656 13.7422C14.0365 13.5182 13.7708 13.3385 13.4688 13.2031C13.1667 13.0677 12.8438 13 12.5 13C12.1562 13 11.8333 13.0651 11.5312 13.1953C11.2292 13.3255 10.9635 13.5052 10.7344 13.7344C10.5052 13.9635 10.3255 14.2292 10.1953 14.5312C10.0651 14.8333 10 15.1562 10 15.5V16H9V15.5C9 15.1719 9.04167 14.8568 9.125 14.5547C9.20833 14.2526 9.33333 13.9661 9.5 13.6953C9.66667 13.4245 9.86458 13.1797 10.0938 12.9609C10.3229 12.7422 10.5833 12.5547 10.875 12.3984C10.5938 12.1589 10.3776 11.875 10.2266 11.5469C10.0755 11.2188 10 10.8698 10 10.5C10 10.1562 10.0651 9.83333 10.1953 9.53125C10.3255 9.22917 10.5026 8.96615 10.7266 8.74219C10.9505 8.51823 11.2161 8.33854 11.5234 8.20312C11.8307 8.06771 12.1562 8 12.5 8C12.8438 8 13.1667 8.0651 13.4688 8.19531C13.7708 8.32552 14.0339 8.50521 14.2578 8.73438C14.4818 8.96354 14.6615 9.22917 14.7969 9.53125C14.9323 9.83333 15 10.1562 15 10.5C15 10.8646 14.9245 11.2109 14.7734 11.5391C14.6224 11.8672 14.4062 12.1536 14.125 12.3984ZM11 10.5C11 10.7083 11.0391 10.9036 11.1172 11.0859C11.1953 11.2682 11.3021 11.4271 11.4375 11.5625C11.5729 11.6979 11.7318 11.8047 11.9141 11.8828C12.0964 11.9609 12.2917 12 12.5 12C12.7083 12 12.9036 11.9609 13.0859 11.8828C13.2682 11.8047 13.4271 11.6979 13.5625 11.5625C13.6979 11.4271 13.8047 11.2682 13.8828 11.0859C13.9609 10.9036 14 10.7083 14 10.5C14 10.2917 13.9609 10.0964 13.8828 9.91406C13.8047 9.73177 13.6979 9.57292 13.5625 9.4375C13.4271 9.30208 13.2682 9.19531 13.0859 9.11719C12.9036 9.03906 12.7083 9 12.5 9C12.2917 9 12.0964 9.03906 11.9141 9.11719C11.7318 9.19531 11.5729 9.30208 11.4375 9.4375C11.3021 9.57292 11.1953 9.73177 11.1172 9.91406C11.0391 10.0964 11 10.2917 11 10.5Z" fill="black"/>
</svg>
