<svg width="108" height="108" viewBox="0 0 108 108" fill="none" xmlns="http://www.w3.org/2000/svg">
<path d="M43.5847 7.06744C48.033 -1.26206 59.967 -1.26206 64.4152 7.06744L105.469 83.8689C106.431 85.6686 106.91 87.6867 106.86 89.7267C106.81 91.7667 106.233 93.759 105.184 95.5094C104.135 97.2598 102.651 98.7086 100.875 99.7147C99.0998 100.721 97.0941 101.25 95.0535 101.25H12.9465C10.9059 101.25 8.90017 100.721 7.12481 99.7147C5.34946 98.7086 3.86501 97.2598 2.81613 95.5094C1.76724 93.759 1.18969 91.7667 1.13977 89.7267C1.08984 87.6867 1.56924 85.6686 2.53124 83.8689L43.5847 7.06744ZM55.485 11.8397C55.3404 11.5718 55.126 11.348 54.8646 11.192C54.6032 11.0361 54.3044 10.9537 54 10.9537C53.6956 10.9537 53.3968 11.0361 53.1354 11.192C52.874 11.348 52.6596 11.5718 52.515 11.8397L11.4615 88.6412C11.3239 88.8981 11.2553 89.1862 11.2622 89.4776C11.269 89.7689 11.3512 90.0535 11.5008 90.3036C11.6503 90.5537 11.8621 90.7608 12.1154 90.9048C12.3688 91.0488 12.6551 91.1247 12.9465 91.1252H95.0535C95.3449 91.1247 95.6312 91.0488 95.8846 90.9048C96.1379 90.7608 96.3497 90.5537 96.4992 90.3036C96.6487 90.0535 96.7309 89.7689 96.7378 89.4776C96.7447 89.1862 96.676 88.8981 96.5385 88.6412L55.485 11.8397ZM59.0625 38.8127V55.6877C59.0625 57.0303 58.5291 58.318 57.5797 59.2674C56.6303 60.2168 55.3426 60.7502 54 60.7502C52.6573 60.7502 51.3697 60.2168 50.4203 59.2674C49.4709 58.318 48.9375 57.0303 48.9375 55.6877V38.8127C48.9375 37.47 49.4709 36.1824 50.4203 35.233C51.3697 34.2836 52.6573 33.7502 54 33.7502C55.3426 33.7502 56.6303 34.2836 57.5797 35.233C58.5291 36.1824 59.0625 37.47 59.0625 38.8127ZM60.75 74.2502C60.75 76.0404 60.0388 77.7573 58.773 79.0232C57.5071 80.289 55.7902 81.0002 54 81.0002C52.2098 81.0002 50.4929 80.289 49.227 79.0232C47.9611 77.7573 47.25 76.0404 47.25 74.2502C47.25 72.46 47.9611 70.7431 49.227 69.4772C50.4929 68.2113 52.2098 67.5002 54 67.5002C55.7902 67.5002 57.5071 68.2113 58.773 69.4772C60.0388 70.7431 60.75 72.46 60.75 74.2502Z" fill="#FF2424"/>
</svg>
