<svg width="93" height="93" viewBox="0 0 93 93" fill="none" xmlns="http://www.w3.org/2000/svg">
<g opacity="0.2">
<path d="M33.7119 11.6245H75.5619C75.5619 11.6245 75.1899 26.644 71.3769 34.8745C67.1454 44.0071 54.6369 53.4745 54.6369 53.4745C54.6369 53.4745 42.1284 44.0071 37.8969 34.8745C34.0839 26.644 33.7119 11.6245 33.7119 11.6245Z" fill="url(#paint0_linear_1173_5479)"/>
<path fill-rule="evenodd" clip-rule="evenodd" d="M33.7119 11.6245C33.7119 11.6245 33.7863 14.5866 34.2002 18.5995C34.721 23.6215 35.7765 30.2989 37.8969 34.8745C42.1284 44.0071 54.6369 53.4745 54.6369 53.4745C54.6369 53.4745 67.1454 44.0071 71.3769 34.8745C73.4973 30.2989 74.5529 23.6215 75.0737 18.5995C75.4922 14.5866 75.5619 11.6245 75.5619 11.6245H33.7119ZM41.2124 18.5995L41.3007 19.3389C41.8587 24.0214 42.812 28.8946 44.2256 31.9404C45.7694 35.2698 49.1546 39.1758 52.6886 42.5656C53.3644 43.2166 54.0138 43.8211 54.6369 44.3791C55.2569 43.8211 55.9079 43.2166 56.5899 42.5656C60.1239 39.1711 63.5045 35.2651 65.0529 31.9404C66.4619 28.8946 67.4151 24.0214 67.9731 19.3389L68.0568 18.5995H41.2124Z" fill="url(#paint1_linear_1173_5479)"/>
<path d="M75.5619 86.0247H33.7119C33.7119 86.0247 34.0839 72.6792 37.8969 65.3601C42.1284 57.2412 54.6369 48.8247 54.6369 48.8247C54.6369 48.8247 67.1454 57.2412 71.3769 65.3601C75.1899 72.6746 75.5619 86.0247 75.5619 86.0247Z" fill="url(#paint2_linear_1173_5479)"/>
<path fill-rule="evenodd" clip-rule="evenodd" d="M75.5623 86.024C75.5623 86.024 75.4461 81.7553 74.6509 76.724C74.0464 72.8552 73.0374 68.54 71.3773 65.3594C67.1458 57.2405 54.6373 48.824 54.6373 48.824C54.6373 48.824 42.1288 57.2405 37.8973 65.3594C36.2373 68.5354 35.2329 72.8552 34.6237 76.724C33.8332 81.7553 33.7123 86.024 33.7123 86.024H75.5623ZM65.2161 76.724C64.686 73.8178 63.9699 71.2649 63.1329 69.656C61.896 67.2892 58.9107 64.1272 55.386 61.1233L54.6373 60.4955C54.3893 60.697 54.1413 60.9063 53.8933 61.1233C50.364 64.1272 47.3787 67.2892 46.1418 69.656C45.3048 71.2649 44.5887 73.8178 44.0586 76.724H65.2161ZM26.7373 13.9723C26.7373 12.739 27.2272 11.5563 28.0993 10.6842C28.9713 9.81217 30.154 9.32227 31.3873 9.32227H78.1803C79.4135 9.32227 80.5963 9.81217 81.4683 10.6842C82.3403 11.5563 82.8303 12.739 82.8303 13.9723C82.8303 15.2055 82.3403 16.3883 81.4683 17.2603C80.5963 18.1324 79.4135 18.6223 78.1803 18.6223H31.3873C30.154 18.6223 28.9713 18.1324 28.0993 17.2603C27.2272 16.3883 26.7373 15.2055 26.7373 13.9723Z" fill="url(#paint3_linear_1173_5479)"/>
<path fill-rule="evenodd" clip-rule="evenodd" d="M26.7373 84.0855C26.7373 82.8523 27.2272 81.6695 28.0993 80.7975C28.9713 79.9255 30.154 79.4355 31.3873 79.4355H78.1803C79.4135 79.4355 80.5963 79.9255 81.4683 80.7975C82.3403 81.6695 82.8303 82.8523 82.8303 84.0855C82.8303 85.3188 82.3403 86.5016 81.4683 87.3736C80.5963 88.2456 79.4135 88.7355 78.1803 88.7355H31.3873C30.154 88.7355 28.9713 88.2456 28.0993 87.3736C27.2272 86.5016 26.7373 85.3188 26.7373 84.0855Z" fill="url(#paint4_linear_1173_5479)"/>
</g>
<path fill-rule="evenodd" clip-rule="evenodd" d="M60.2626 13.9498H32.7346C31.3396 13.9498 30.6421 15.0054 30.7444 15.9028C31.2745 20.5203 32.2696 25.8213 33.9343 29.2111C36.1524 33.7356 41.5045 38.818 45.5454 42.18C45.8087 42.4121 46.1476 42.5401 46.4986 42.5401C46.8496 42.5401 47.1886 42.4121 47.4519 42.18C51.4974 38.818 56.8449 33.7356 59.0629 29.2065C60.7276 25.8213 61.7227 20.5203 62.2575 15.9028C62.3598 15.0054 61.6576 13.9498 60.2673 13.9498M32.7346 9.2998C28.81 9.2998 25.6713 12.5362 26.1223 16.4329C26.6617 21.1062 27.7173 27.1 29.7586 31.2571C32.4603 36.7627 38.5378 42.3985 42.574 45.7558C44.8711 47.6623 48.1261 47.6623 50.4232 45.7558C54.4594 42.3985 60.537 36.7627 63.2386 31.2571C65.28 27.1 66.3355 21.1062 66.8749 16.4329C67.326 12.5362 64.1872 9.2998 60.2626 9.2998H32.7346Z" fill="url(#paint5_linear_1173_5479)"/>
<path fill-rule="evenodd" clip-rule="evenodd" d="M32.7356 79.0498H60.2636C61.6586 79.0498 62.3561 77.9943 62.2538 77.0968C61.7237 72.4794 60.7286 67.1784 59.0639 63.7932C56.8459 59.2641 51.4937 54.1816 47.4529 50.8197C47.1896 50.5875 46.8506 50.4595 46.4996 50.4595C46.1486 50.4595 45.8097 50.5875 45.5464 50.8197C41.5009 54.1816 36.1534 59.2641 33.9353 63.7932C32.2706 67.1784 31.2755 72.4794 30.7408 77.1015C30.6385 77.9943 31.3453 79.0498 32.7356 79.0498ZM60.259 83.6998C64.1836 83.6998 67.3223 80.4634 66.8713 76.5667C66.3319 71.8888 65.2763 65.8996 63.235 61.7425C60.5333 56.2369 54.4558 50.6011 50.4196 47.2438C49.3212 46.3185 47.9312 45.811 46.495 45.811C45.0588 45.811 43.6688 46.3185 42.5704 47.2438C38.5342 50.6011 32.4566 56.2369 29.755 61.7425C27.7136 65.8996 26.6581 71.8888 26.1187 76.5667C25.6723 80.4634 28.811 83.6998 32.7356 83.6998H60.259ZM18.5996 11.6248C18.5996 11.0082 18.8446 10.4168 19.2806 9.98078C19.7166 9.54476 20.308 9.2998 20.9246 9.2998H72.0746C72.6912 9.2998 73.2826 9.54476 73.7186 9.98078C74.1547 10.4168 74.3996 11.0082 74.3996 11.6248C74.3996 12.2414 74.1547 12.8328 73.7186 13.2688C73.2826 13.7048 72.6912 13.9498 72.0746 13.9498H20.9246C20.308 13.9498 19.7166 13.7048 19.2806 13.2688C18.8446 12.8328 18.5996 12.2414 18.5996 11.6248Z" fill="url(#paint6_linear_1173_5479)"/>
<path fill-rule="evenodd" clip-rule="evenodd" d="M18.5996 81.3748C18.5996 80.7582 18.8446 80.1668 19.2806 79.7308C19.7166 79.2948 20.308 79.0498 20.9246 79.0498H72.0746C72.6912 79.0498 73.2826 79.2948 73.7186 79.7308C74.1547 80.1668 74.3996 80.7582 74.3996 81.3748C74.3996 81.9914 74.1547 82.5828 73.7186 83.0188C73.2826 83.4549 72.6912 83.6998 72.0746 83.6998H20.9246C20.308 83.6998 19.7166 83.4549 19.2806 83.0188C18.8446 82.5828 18.5996 81.9914 18.5996 81.3748Z" fill="url(#paint7_linear_1173_5479)"/>
<defs>
<linearGradient id="paint0_linear_1173_5479" x1="48.1034" y1="21.634" x2="76.7489" y2="27.1602" gradientUnits="userSpaceOnUse">
<stop offset="0.00666656" stop-color="#6E9953"/>
<stop offset="0.526667" stop-color="#8AD167"/>
<stop offset="1" stop-color="#9DDB8C"/>
</linearGradient>
<linearGradient id="paint1_linear_1173_5479" x1="48.1034" y1="21.634" x2="76.7489" y2="27.1602" gradientUnits="userSpaceOnUse">
<stop offset="0.00666656" stop-color="#6E9953"/>
<stop offset="0.526667" stop-color="#8AD167"/>
<stop offset="1" stop-color="#9DDB8C"/>
</linearGradient>
<linearGradient id="paint2_linear_1173_5479" x1="48.1034" y1="57.722" x2="76.4784" y2="63.8803" gradientUnits="userSpaceOnUse">
<stop offset="0.00666656" stop-color="#6E9953"/>
<stop offset="0.526667" stop-color="#8AD167"/>
<stop offset="1" stop-color="#9DDB8C"/>
</linearGradient>
<linearGradient id="paint3_linear_1173_5479" x1="46.0267" y1="27.6675" x2="85.0729" y2="33.1762" gradientUnits="userSpaceOnUse">
<stop offset="0.00666656" stop-color="#6E9953"/>
<stop offset="0.526667" stop-color="#8AD167"/>
<stop offset="1" stop-color="#9DDB8C"/>
</linearGradient>
<linearGradient id="paint4_linear_1173_5479" x1="46.0267" y1="81.6599" x2="62.9446" y2="101.345" gradientUnits="userSpaceOnUse">
<stop offset="0.00666656" stop-color="#6E9953"/>
<stop offset="0.526667" stop-color="#8AD167"/>
<stop offset="1" stop-color="#9DDB8C"/>
</linearGradient>
<linearGradient id="paint5_linear_1173_5479" x1="40.123" y1="18.3612" x2="67.9149" y2="24.1407" gradientUnits="userSpaceOnUse">
<stop offset="0.00666656" stop-color="#6E9953"/>
<stop offset="0.526667" stop-color="#8AD167"/>
<stop offset="1" stop-color="#9DDB8C"/>
</linearGradient>
<linearGradient id="paint6_linear_1173_5479" x1="37.7883" y1="27.0945" x2="76.5914" y2="32.7088" gradientUnits="userSpaceOnUse">
<stop offset="0.00666656" stop-color="#6E9953"/>
<stop offset="0.526667" stop-color="#8AD167"/>
<stop offset="1" stop-color="#9DDB8C"/>
</linearGradient>
<linearGradient id="paint7_linear_1173_5479" x1="37.7883" y1="80.162" x2="44.0179" y2="94.5835" gradientUnits="userSpaceOnUse">
<stop offset="0.00666656" stop-color="#6E9953"/>
<stop offset="0.526667" stop-color="#8AD167"/>
<stop offset="1" stop-color="#9DDB8C"/>
</linearGradient>
</defs>
</svg>
