<svg width="23" height="21" viewBox="0 0 23 21" fill="none" xmlns="http://www.w3.org/2000/svg">
<path d="M14.6671 8.27778C15.778 8.27778 16.6796 9.14889 16.6796 10.2222V15.4989C16.6796 16.8253 16.1343 18.0973 15.1635 19.0352C14.1928 19.9731 12.8763 20.5 11.5035 20.5C10.1306 20.5 8.81408 19.9731 7.84336 19.0352C6.87264 18.0973 6.3273 16.8253 6.3273 15.4989V10.2222C6.3273 9.14889 7.22775 8.27778 8.3398 8.27778H14.6671ZM5.90065 8.27778C5.48511 8.75863 5.23579 9.35309 5.18765 9.97778L5.17615 10.2222V15.4989C5.17615 16.44 5.39695 17.3311 5.79025 18.1267C5.40998 18.2267 5.01323 18.277 4.6 18.2778C3.99582 18.2778 3.39756 18.1628 2.83939 17.9394C2.28122 17.7159 1.77407 17.3885 1.3469 16.9756C0.919738 16.5628 0.580928 16.0727 0.349824 15.5334C0.11872 14.994 -0.000150901 14.416 1.43763e-07 13.8322V10.2222C1.9009e-05 9.73423 0.189947 9.26409 0.532082 8.90512C0.874217 8.54615 1.34354 8.3246 1.8469 8.28444L2.0125 8.27778H5.90065ZM17.1062 8.27778H20.9875C22.0984 8.27778 23 9.14889 23 10.2222V13.8333C23.0002 14.5146 22.8382 15.1868 22.5266 15.798C22.2151 16.4092 21.7623 16.943 21.2032 17.3582C20.6441 17.7734 19.9937 18.0588 19.3023 18.1924C18.6108 18.3261 17.8969 18.3043 17.2155 18.1289C17.5605 17.4311 17.7721 16.6622 17.8193 15.8489L17.8296 15.4989V10.2222C17.8296 9.48333 17.5593 8.80556 17.1062 8.27778ZM11.5 0.5C12.415 0.5 13.2925 0.85119 13.9395 1.47631C14.5865 2.10143 14.95 2.94928 14.95 3.83333C14.95 4.71739 14.5865 5.56524 13.9395 6.19036C13.2925 6.81548 12.415 7.16667 11.5 7.16667C10.585 7.16667 9.70748 6.81548 9.06048 6.19036C8.41348 5.56524 8.05 4.71739 8.05 3.83333C8.05 2.94928 8.41348 2.10143 9.06048 1.47631C9.70748 0.85119 10.585 0.5 11.5 0.5ZM18.975 1.61111C19.7375 1.61111 20.4688 1.90377 21.0079 2.4247C21.5471 2.94564 21.85 3.65218 21.85 4.38889C21.85 5.1256 21.5471 5.83214 21.0079 6.35307C20.4688 6.87401 19.7375 7.16667 18.975 7.16667C18.2125 7.16667 17.4812 6.87401 16.9421 6.35307C16.4029 5.83214 16.1 5.1256 16.1 4.38889C16.1 3.65218 16.4029 2.94564 16.9421 2.4247C17.4812 1.90377 18.2125 1.61111 18.975 1.61111ZM4.025 1.61111C4.7875 1.61111 5.51876 1.90377 6.05793 2.4247C6.5971 2.94564 6.9 3.65218 6.9 4.38889C6.9 5.1256 6.5971 5.83214 6.05793 6.35307C5.51876 6.87401 4.7875 7.16667 4.025 7.16667C3.2625 7.16667 2.53124 6.87401 1.99207 6.35307C1.4529 5.83214 1.15 5.1256 1.15 4.38889C1.15 3.65218 1.4529 2.94564 1.99207 2.4247C2.53124 1.90377 3.2625 1.61111 4.025 1.61111Z" fill="#8AD167"/>
</svg>
