<svg width="96" height="96" viewBox="0 0 96 96" fill="none" xmlns="http://www.w3.org/2000/svg">
<path d="M42.2983 20.8679L14.0663 67.9999C13.4846 69.008 13.1769 70.1509 13.1739 71.3148C13.1708 72.4787 13.4724 73.6231 14.0488 74.6343C14.6252 75.6455 15.4562 76.4882 16.4593 77.0786C17.4623 77.6691 18.6024 77.9867 19.7663 77.9999H76.2303C77.3946 77.9879 78.5354 77.671 79.5392 77.0809C80.5429 76.4907 81.3745 75.6479 81.9511 74.6363C82.5277 73.6247 82.8292 72.4797 82.8255 71.3153C82.8219 70.1509 82.5132 69.0078 81.9303 67.9999L53.7023 20.8679C53.1085 19.8876 52.272 19.077 51.2735 18.5144C50.275 17.9518 49.1483 17.6562 48.0023 17.6562C46.8562 17.6562 45.7295 17.9518 44.731 18.5144C43.7325 19.077 42.896 19.8876 42.3023 20.8679" fill="white" fill-opacity="0.16"/>
<path d="M47.9983 63.9999H48.0303M47.9983 39.9999V51.9999M42.2983 20.8679L14.0663 67.9999C13.4846 69.008 13.1769 70.1509 13.1739 71.3148C13.1708 72.4787 13.4724 73.6231 14.0488 74.6343C14.6252 75.6455 15.4562 76.4882 16.4593 77.0786C17.4623 77.6691 18.6024 77.9867 19.7663 77.9999H76.2303C77.3946 77.9879 78.5354 77.671 79.5392 77.0809C80.5429 76.4907 81.3745 75.6478 81.9511 74.6363C82.5277 73.6247 82.8292 72.4797 82.8255 71.3153C82.8219 70.1509 82.5132 69.0078 81.9303 67.9999L53.7023 20.8679C53.1085 19.8876 52.272 19.077 51.2735 18.5144C50.275 17.9518 49.1483 17.6562 48.0023 17.6562C46.8562 17.6562 45.7295 17.9518 44.731 18.5144C43.7325 19.077 42.896 19.8876 42.3023 20.8679" stroke="#FF3B30" stroke-width="5.5625" stroke-miterlimit="10" stroke-linecap="round" stroke-linejoin="round"/>
</svg>
