<svg width="220" height="131" viewBox="0 0 220 131" fill="none" xmlns="http://www.w3.org/2000/svg">
<circle cx="95.5" cy="65.5" r="65.5" fill="#E9FFDC"/>
<circle cx="13" cy="118" r="13" fill="#E9FFDC"/>
<circle cx="198.5" cy="87.5" r="21.5" fill="#E9FFDC"/>
<path d="M104.667 33C122.773 33 137.333 47.6533 137.333 65.6666C137.333 78.7333 129.727 89.8866 118.667 95.1133V117H86V103H81.3333C76.1533 103 72 98.8466 72 93.6666V79.6666H65C63.04 79.6666 61.92 77.3333 63.04 75.8866L72 64.08C72.4112 55.6953 76.0331 47.7905 82.1149 42.004C88.1967 36.2176 96.272 32.9935 104.667 33ZM104.667 23.6666C83.2933 23.6666 65.5133 39.6733 62.9467 60.58L55.6667 70.3333C52.96 73.6933 52.4933 78.36 54.4533 82.42C56.1333 85.78 59.12 88.0666 62.6667 88.7666V93.6666C62.6667 102.347 68.64 109.673 76.6667 111.727V126.333H128V100.527C139.667 92.8733 146.667 79.9466 146.667 65.6666C146.667 42.52 127.813 23.6666 104.667 23.6666ZM119.133 62.96V61C119.133 60.3 119.133 59.88 118.853 59.2266L123.007 56.1466C123.333 55.96 123.333 55.3066 123.333 54.84L119.507 48.4933C119.273 48.0733 118.667 47.84 118.2 48.0733L113.58 50.0333C112.74 49.1466 111.667 48.4933 110.547 48.0733L109.8 43.2666C109.66 42.6133 109.333 42.3333 108.773 42.3333H101.353C100.887 42.3333 100.467 42.6133 100.467 43.2666L99.8133 48.0733C98.74 48.4933 97.6667 49.1466 96.7333 50.0333L91.9267 48.0733C91.5067 47.84 91.1333 48.0733 90.8533 48.4933L87.12 54.84C86.8867 55.4933 86.8867 55.96 87.3533 56.1466L91.2733 59.2266C91.2733 59.88 91.1333 60.5333 91.1333 61C91.1333 61.6533 91.2733 62.3066 91.2733 62.96L87.3533 65.9933C86.8867 66.2266 86.8867 66.6466 87.12 67.1133L90.8533 73.6466C91.1333 74.1133 91.5067 74.1133 91.9267 74.1133L96.5467 72.1066C97.6667 72.9933 98.5067 73.46 99.8133 73.88L100.467 78.92C100.467 79.34 100.887 79.6666 101.353 79.6666H108.773C109.333 79.6666 109.66 79.34 109.8 78.92L110.547 73.88C111.667 73.46 112.74 72.9933 113.58 72.1533L118.2 74.1133C118.667 74.1133 119.273 74.1133 119.507 73.6466L123.333 67.1133C123.333 66.6466 123.333 66.2266 123.007 65.9933L119.133 62.96ZM105.133 67.7666C101.493 67.7666 98.5067 64.6866 98.5067 61C98.5067 57.3133 101.353 54.42 105.133 54.42C108.773 54.42 111.853 57.2666 111.853 61C111.853 64.7333 108.773 67.7666 105.133 67.7666Z" fill="url(#paint0_linear_1295_5960)"/>
<defs>
<linearGradient id="paint0_linear_1295_5960" x1="85.3767" y1="48.222" x2="149.713" y2="59.515" gradientUnits="userSpaceOnUse">
<stop offset="0.00666656" stop-color="#6E9953"/>
<stop offset="0.526667" stop-color="#8AD167"/>
<stop offset="1" stop-color="#9DDB8C"/>
</linearGradient>
</defs>
</svg>
