<svg width="220" height="138" viewBox="0 0 220 138" fill="none" xmlns="http://www.w3.org/2000/svg">
<circle cx="95.5" cy="65.5" r="65.5" fill="#E9FFDC"/>
<circle cx="13" cy="118" r="13" fill="#E9FFDC"/>
<circle cx="198.5" cy="87.5" r="21.5" fill="#E9FFDC"/>
<path fill-rule="evenodd" clip-rule="evenodd" d="M71.2611 22.8412L71.5122 22.8771C72.9882 23.0821 74.29 23.2614 75.3714 23.4921C76.5194 23.7381 77.6879 24.0968 78.8051 24.7836C81.2754 26.3057 83.0076 28.7657 83.7149 31.5691C84.0685 32.9733 83.9711 34.8286 83.8686 36.2123L83.7456 37.5294L107.613 40.8504L107.792 39.6819C108.018 38.3187 108.366 36.4891 109.058 35.2027C109.729 33.9321 110.647 32.8086 111.758 31.8984C112.87 30.9883 114.153 30.31 115.531 29.9034C116.797 29.5396 118.022 29.5139 119.19 29.5959C120.287 29.6626 121.594 29.8471 123.07 30.0521L123.316 30.0879C124.792 30.2929 126.099 30.4723 127.175 30.7029C128.328 30.9489 129.491 31.3026 130.609 31.9893C133.079 33.5166 134.811 35.9766 135.518 38.7748C135.831 40.0202 135.857 41.2348 135.785 42.4392C135.723 43.5872 135.554 44.9607 135.359 46.5597L133.566 61.3453C133.376 62.9392 133.207 64.3178 132.997 65.4453C132.776 66.6241 132.464 67.8028 131.854 68.9354C131.184 70.207 130.266 71.3315 129.154 72.2425C128.043 73.1536 126.76 73.8327 125.381 74.2398C124.19 74.5618 122.95 74.6659 121.722 74.5473C120.625 74.4756 119.323 74.2911 117.847 74.0861L117.591 74.0553C116.12 73.8503 114.813 73.6658 113.737 73.4403C112.527 73.2095 111.366 72.7727 110.303 72.1488C107.845 70.6132 106.083 68.1785 105.394 65.3633C105.035 63.9539 105.137 62.1038 105.24 60.7149C105.274 60.2913 105.313 59.8522 105.358 59.3978L81.4957 56.0768L81.3112 57.2504C81.0857 58.6137 80.7372 60.4433 80.0505 61.7246C79.3799 62.9967 78.4611 64.1215 77.3484 65.0325C76.2358 65.9436 74.9519 66.6224 73.5725 67.0289C72.3828 67.3503 71.145 67.4544 69.9184 67.3364C68.8216 67.2647 67.5096 67.0802 66.0387 66.8752L65.7876 66.8444C64.3116 66.6394 63.0047 66.4601 61.9285 66.2294C60.7184 65.9986 59.557 65.5618 58.4947 64.9379C56.0375 63.4035 54.276 60.9709 53.585 58.1576C53.3052 56.9575 53.2152 55.7211 53.3185 54.4932C53.3851 53.3452 53.5491 51.9717 53.7439 50.3727L55.5376 35.5871C55.7324 33.9881 55.8964 32.6146 56.1116 31.4871C56.332 30.3083 56.6446 29.1296 57.2494 27.9969C57.9189 26.7244 58.8366 25.5989 59.9484 24.687C61.0601 23.7751 62.3433 23.0952 63.7222 22.6874C64.9881 22.3236 66.213 22.3031 67.3815 22.3799C68.4782 22.4517 69.7851 22.6362 71.2611 22.8412ZM66.8792 30.0521C66.5385 30.0032 66.1921 30.0118 65.8542 30.0777C65.4607 30.2007 65.096 30.4015 64.7817 30.6683C64.4674 30.935 64.2099 31.2623 64.0246 31.6306C63.8511 32.0354 63.7306 32.4608 63.6659 32.8964C63.507 33.7523 63.3686 34.8849 63.1534 36.6274L61.3904 51.1824C61.1802 52.9249 61.0419 54.0524 60.9957 54.9288C60.9517 55.3782 60.9672 55.8314 61.0419 56.2767C61.2425 57.149 61.7758 57.9084 62.5281 58.3933C62.8471 58.5486 63.1873 58.6557 63.5377 58.7111C64.3065 58.8751 65.3315 59.0186 66.9715 59.2492C68.6115 59.4747 69.6365 59.6182 70.4206 59.6694C70.7596 59.7177 71.1043 59.7091 71.4405 59.6438C71.828 59.5232 72.1879 59.3271 72.4993 59.0667C72.8107 58.8063 73.0674 58.4869 73.2547 58.1268C73.2547 58.1166 73.3162 57.9731 73.4034 57.6297C73.5059 57.2163 73.6152 56.6696 73.7314 55.9897C73.9569 54.6316 74.1567 52.9916 74.3617 51.2747C74.4229 50.7677 74.5845 50.278 74.837 49.8341C75.0896 49.3903 75.4281 49.0012 75.8327 48.6897C76.2373 48.3781 76.6999 48.1503 77.1936 48.0195C77.6872 47.8888 78.2019 47.8577 78.7077 47.9281L110.134 52.3048C111.131 52.4451 112.033 52.9709 112.646 53.7692C113.26 54.5675 113.535 55.5746 113.414 56.5739C113.209 58.2908 113.014 59.9257 112.907 61.3043C112.858 61.8634 112.833 62.4242 112.83 62.9853C112.83 63.3646 112.861 63.5183 112.856 63.5183C113.062 64.3784 113.593 65.1256 114.337 65.6042C114.656 65.7577 114.996 65.863 115.346 65.9168C116.115 66.0859 117.14 66.2243 118.78 66.4549C120.42 66.6856 121.445 66.8239 122.229 66.8752C122.568 66.9235 122.913 66.9148 123.249 66.8496C123.643 66.7278 124.009 66.528 124.324 66.2621C124.639 65.9962 124.897 65.6696 125.084 65.3018C125.257 64.897 125.378 64.4716 125.443 64.0359C125.596 63.1749 125.74 62.0474 125.95 60.3049L127.713 45.7499C127.928 44.0074 128.061 42.8748 128.113 41.9984C128.17 41.5511 128.152 41.0974 128.061 40.6557C127.861 39.7834 127.328 39.0239 126.575 38.5391C126.256 38.3838 125.916 38.2767 125.566 38.2213C124.797 38.0573 123.772 37.9138 122.132 37.6832C120.492 37.4526 119.467 37.3142 118.688 37.2629C118.347 37.2141 118.001 37.2227 117.663 37.2886C117.276 37.4086 116.916 37.6039 116.605 37.8634C116.293 38.1229 116.036 38.4413 115.849 38.8004C115.849 38.8158 115.792 38.9542 115.705 39.2976C115.574 39.8395 115.464 40.3867 115.377 40.9376C115.132 42.5046 114.92 44.0766 114.742 45.6526C114.68 46.1596 114.519 46.6493 114.266 47.0931C114.014 47.537 113.675 47.926 113.271 48.2376C112.866 48.5492 112.403 48.777 111.91 48.9077C111.416 49.0385 110.901 49.0696 110.396 48.9992L78.9742 44.6276C77.9764 44.4885 77.0731 43.9632 76.4587 43.1647C75.8443 42.3663 75.568 41.3586 75.6891 40.3584C75.8941 38.6364 76.094 37.0016 76.2016 35.6229C76.2529 34.9396 76.2768 34.381 76.2734 33.9471C76.2734 33.5678 76.2477 33.4141 76.2477 33.4089C76.0412 32.5515 75.5127 31.8065 74.7717 31.3282C74.4528 31.1729 74.1125 31.0659 73.7621 31.0104C72.9934 30.8464 71.9684 30.7029 70.3284 30.4723C69.1832 30.2968 68.033 30.1567 66.8792 30.0521ZM144.385 77.7607C143.616 77.9247 142.617 78.2066 141.018 78.6678C139.424 79.1239 138.424 79.4109 137.676 79.6877C137.326 79.7922 136.994 79.9494 136.692 80.1541C135.995 80.7445 135.55 81.5785 135.447 82.4859C135.447 82.4859 135.447 82.6397 135.493 83.0241C135.544 83.4546 135.636 84.0047 135.77 84.6743C136.046 86.0273 136.446 87.6161 136.861 89.2919C137.103 90.2583 136.961 91.2809 136.464 92.1443C135.966 93.0076 135.153 93.6442 134.196 93.9198L103.584 102.704C103.089 102.846 102.57 102.887 102.058 102.824C101.546 102.761 101.052 102.596 100.605 102.338C100.159 102.08 99.7685 101.735 99.458 101.324C99.1474 100.912 98.9229 100.442 98.7977 99.9417C98.3775 98.2658 97.9777 96.6771 97.5882 95.3599C97.4336 94.8286 97.2575 94.3037 97.0604 93.7866C96.9997 93.6295 96.9312 93.4756 96.8554 93.3253C96.631 93.0075 96.3454 92.7377 96.0154 92.5318C95.6854 92.3259 95.3176 92.1879 94.9335 92.1261C94.5927 92.1091 94.2515 92.1489 93.9239 92.2439C93.1551 92.4079 92.1506 92.6898 90.5567 93.1511C88.9629 93.6072 87.9584 93.8942 87.2152 94.1709C86.8654 94.2754 86.5336 94.4327 86.2312 94.6373C85.5244 95.2356 85.0764 96.084 84.9807 97.0051C84.9624 97.4561 85.0038 97.9076 85.1037 98.3478C85.2575 99.2037 85.5291 100.306 85.9545 102.002L89.501 116.183C89.9264 117.879 90.2031 118.981 90.4696 119.806C90.7259 120.601 90.8899 120.877 90.9667 120.985C91.1901 121.315 91.4786 121.595 91.8144 121.809C92.1502 122.024 92.5262 122.167 92.9194 122.23C92.9706 122.235 93.1961 122.261 93.9341 122.107C94.7029 121.948 95.7074 121.661 97.3012 121.205C98.8951 120.744 99.8945 120.457 100.643 120.18C100.993 120.076 101.324 119.919 101.627 119.714C102.324 119.124 102.769 118.29 102.872 117.382C102.872 117.382 102.872 117.228 102.831 116.844C102.76 116.29 102.666 115.74 102.549 115.194C102.218 113.649 101.854 112.111 101.458 110.581C101.214 109.614 101.356 108.59 101.853 107.726C102.35 106.861 103.164 106.224 104.123 105.948L134.734 97.1639C135.23 97.022 135.749 96.9813 136.261 97.0442C136.773 97.1071 137.267 97.2723 137.713 97.5301C138.16 97.7878 138.55 98.1328 138.861 98.5445C139.171 98.9561 139.396 99.4261 139.521 99.9263C139.941 101.602 140.341 103.191 140.73 104.508C140.925 105.161 141.101 105.687 141.258 106.087C141.381 106.394 141.453 106.527 141.463 106.548C141.688 106.866 141.973 107.135 142.303 107.341C142.633 107.547 143.001 107.685 143.385 107.747C143.437 107.752 143.662 107.778 144.395 107.624C145.164 107.465 146.168 107.178 147.762 106.722C149.361 106.261 150.36 105.974 151.103 105.697C151.455 105.593 151.789 105.436 152.093 105.231C152.798 104.632 153.244 103.783 153.338 102.863C153.358 102.412 153.318 101.961 153.22 101.52C152.969 100.294 152.684 99.0758 152.364 97.8661L148.818 83.6852C148.529 82.4703 148.206 81.2637 147.849 80.0669C147.734 79.653 147.567 79.2553 147.352 78.8831C147.128 78.5543 146.839 78.2747 146.504 78.0614C146.168 77.8482 145.792 77.7057 145.399 77.6428C145.057 77.6253 144.714 77.6651 144.385 77.7607ZM142.806 70.2372C144.005 69.949 145.247 69.8795 146.47 70.0322C148.514 70.3232 150.428 71.207 151.975 72.5742C153.521 73.9415 154.633 75.7322 155.173 77.7248C155.521 78.8113 155.854 80.1541 156.249 81.7069L159.847 96.1082C160.236 97.6662 160.575 99.0089 160.779 100.136C160.995 101.325 161.123 102.53 160.969 103.806C160.632 106.683 159.201 109.32 156.972 111.171C156.006 111.931 154.918 112.52 153.753 112.913C152.713 113.297 151.447 113.661 150.007 114.076L149.761 114.143C148.326 114.553 147.055 114.922 145.978 115.148C144.778 115.438 143.535 115.509 142.309 115.358C140.887 115.149 139.522 114.653 138.298 113.901C137.073 113.148 136.014 112.155 135.185 110.981C134.329 109.797 133.755 108.019 133.366 106.702L133.058 105.641L109.791 112.319L110.083 113.661C110.36 115.019 110.683 116.844 110.503 118.284C110.168 121.163 108.736 123.802 106.506 125.654C105.54 126.414 104.452 127.003 103.287 127.396C102.252 127.781 100.981 128.145 99.546 128.56L99.3 128.626C97.865 129.036 96.594 129.405 95.5126 129.631C94.3138 129.921 93.0724 129.992 91.8482 129.841C90.4254 129.633 89.0597 129.137 87.8342 128.385C86.6087 127.632 85.549 126.639 84.7194 125.464C84.0245 124.446 83.4936 123.326 83.146 122.143C82.7975 121.057 82.4644 119.714 82.0697 118.161L78.472 103.76C78.0825 102.202 77.7442 100.859 77.5392 99.7316C77.2851 98.5275 77.2212 97.2911 77.3496 96.0672C77.6865 93.1899 79.118 90.5527 81.3471 88.7026C82.3567 87.8723 83.4637 87.3598 84.5656 86.9549C85.606 86.5706 86.8719 86.2067 88.3171 85.7967L88.558 85.7249C89.993 85.3149 91.264 84.9459 92.3402 84.7204C93.5411 84.4316 94.7842 84.3621 96.0097 84.5154C97.4313 84.7238 98.7957 85.2187 100.02 85.9701C101.245 86.7216 102.304 87.714 103.133 88.8871C103.989 90.0761 104.563 91.8544 104.953 93.1664L105.26 94.2273L128.528 87.5494C128.422 87.0882 128.326 86.6423 128.241 86.2118C127.959 84.8486 127.636 83.0241 127.815 81.5839C128.152 78.7067 129.584 76.0695 131.813 74.2193C132.778 73.4572 133.867 72.8661 135.031 72.4717C136.067 72.0873 137.338 71.7234 138.773 71.3134L139.019 71.2417C140.454 70.8317 141.73 70.4627 142.806 70.2372Z" fill="url(#paint0_linear_1295_5958)"/>
<defs>
<linearGradient id="paint0_linear_1295_5958" x1="90.3338" y1="48.0728" x2="164.084" y2="62.325" gradientUnits="userSpaceOnUse">
<stop offset="0.00666656" stop-color="#6E9953"/>
<stop offset="0.526667" stop-color="#8AD167"/>
<stop offset="1" stop-color="#9DDB8C"/>
</linearGradient>
</defs>
</svg>
