<svg width="41" height="40" viewBox="0 0 41 40" fill="none" xmlns="http://www.w3.org/2000/svg">
<path d="M26.3333 15.0001V25.0001C26.3333 25.7751 26.3333 26.1617 26.4183 26.4801C26.532 26.9036 26.7551 27.2898 27.0651 27.5999C27.3752 27.91 27.7614 28.1331 28.185 28.2467C28.5033 28.3334 28.8917 28.3334 29.6667 28.3334C30.4417 28.3334 30.83 28.3334 31.1467 28.2484C31.5702 28.1348 31.9564 27.9117 32.2665 27.6016C32.5766 27.2915 32.7997 26.9053 32.9133 26.4817C33 26.1634 33 25.7751 33 25.0001V15.0001C33 14.2251 33 13.8384 32.915 13.5201C32.8013 13.0965 32.5783 12.7103 32.2682 12.4002C31.9581 12.0901 31.5719 11.8671 31.1483 11.7534C30.8283 11.6667 30.44 11.6667 29.6667 11.6667C28.8933 11.6667 28.5033 11.6667 28.1867 11.7517C27.7631 11.8654 27.3769 12.0885 27.0668 12.3986C26.7567 12.7087 26.5337 13.0949 26.42 13.5184C26.3333 13.8384 26.3333 14.2251 26.3333 15.0001ZM8 15.0001V25.0001C8 25.7751 8 26.1617 8.085 26.4801C8.19865 26.9036 8.42172 27.2898 8.73181 27.5999C9.04191 27.91 9.42811 28.1331 9.85167 28.2467C10.1717 28.3334 10.5583 28.3334 11.3333 28.3334C12.1083 28.3334 12.495 28.3334 12.8133 28.2484C13.2369 28.1348 13.6231 27.9117 13.9332 27.6016C14.2433 27.2915 14.4663 26.9053 14.58 26.4817C14.6667 26.1634 14.6667 25.7751 14.6667 25.0001V15.0001C14.6667 14.2251 14.6667 13.8384 14.5817 13.5201C14.468 13.0965 14.2449 12.7103 13.9349 12.4002C13.6248 12.0901 13.2386 11.8671 12.815 11.7534C12.4933 11.6667 12.1067 11.6667 11.3333 11.6667C10.56 11.6667 10.1717 11.6667 9.85333 11.7517C9.42978 11.8654 9.04357 12.0885 8.73348 12.3986C8.42339 12.7087 8.20032 13.0949 8.08667 13.5184C8 13.8401 8 14.2267 8 15.0001Z" stroke="#8AD167" stroke-width="2"/>
<path d="M8.83325 16.6667H7.16659C6.28253 16.6667 5.43468 17.0179 4.80956 17.6431C4.18444 18.2682 3.83325 19.116 3.83325 20.0001C3.83325 20.8841 4.18444 21.732 4.80956 22.3571C5.43468 22.9822 6.28253 23.3334 7.16659 23.3334H8.83325M15.4999 20.0001H25.4999M32.1666 23.3334H33.8333C34.7173 23.3334 35.5652 22.9822 36.1903 22.3571C36.8154 21.732 37.1666 20.8841 37.1666 20.0001C37.1666 19.116 36.8154 18.2682 36.1903 17.6431C35.5652 17.0179 34.7173 16.6667 33.8333 16.6667H32.1666" stroke="#8AD167" stroke-width="2"/>
</svg>
