<svg width="29" height="29" viewBox="0 0 29 29" fill="none" xmlns="http://www.w3.org/2000/svg">
<path d="M9.95117 17.8042C9.43958 18.0959 7.4195 19.6784 7.4195 19.6784C7.4195 19.6784 10.5351 22.4049 10.8518 22.843C10.8518 22.843 9.95117 18.461 9.95117 17.8042Z" stroke="#8AD167" stroke-linecap="round" stroke-linejoin="round"/>
<path d="M12.3854 12.1562C11.3628 12.1562 9.95117 13.2919 8.66083 14.5741C7.3705 15.8563 4.1085 18.6802 4.1085 19.9215C4.1085 21.1628 10.5596 25.8616 12.799 25.8616C15.0384 25.8616 18.0572 26.0803 19.8101 24.7661C21.563 23.4518 24.6051 20.4086 24.7276 19.8731C24.8895 19.0801 24.9224 18.2662 24.825 17.4627C24.7483 17.2751 24.6214 17.1122 24.4582 16.992C24.295 16.8718 24.1018 16.799 23.8998 16.7814C23.425 16.7814 22.1837 17.2924 22.1837 18.1569C22.2313 18.7142 22.3372 19.265 22.4998 19.8002C21.4638 20.611 20.383 21.3627 19.2623 22.0518C19.2623 22.0518 19.3352 17.6331 19.1048 16.5382C18.8744 15.4432 16.8532 13.6897 16.8532 13.3491C16.8532 13.0084 17.5462 10.7445 17.5462 10.7445C17.5462 10.7445 18.9707 11.0607 19.1287 10.1962C19.2868 9.33167 19.1772 9.29608 19.1772 9.29608C19.2976 9.17624 19.3897 9.03093 19.4466 8.87083C19.5036 8.71073 19.5239 8.53991 19.5062 8.37092C19.4087 7.85992 19.1165 7.969 19.1287 7.67675C19.141 7.3845 19.6759 3.125 15.6836 3.125C11.6912 3.125 11.6673 6.4115 11.6673 7.03217C11.6673 7.65283 13.5048 10.1845 13.3222 11.1948C13.1397 12.2052 13.1642 12.12 13.1642 12.12C13.1642 12.12 12.7605 12.1562 12.3854 12.1562Z" stroke="#8AD167" stroke-width="1.5" stroke-linecap="round" stroke-linejoin="round"/>
<path d="M12.1538 8.52895C11.7035 8.66311 9.14792 12.3754 7.51633 12.3754C6.68368 12.2867 5.9169 11.8816 5.37433 11.2438C6.8105 11.3289 8.63633 8.54178 10.0363 8.3347C10.7479 8.29563 11.4613 8.36107 12.1538 8.52895Z" stroke="#8AD167" stroke-linecap="round" stroke-linejoin="round"/>
</svg>
