<?xml version="1.0" encoding="UTF-8"?>
<svg id="Layer_2" data-name="Layer 2" xmlns="http://www.w3.org/2000/svg" xmlns:xlink="http://www.w3.org/1999/xlink" viewBox="0 0 284 284">
  <defs>
    <style>
      .cls-1 {
        fill: #ced2db;
      }

      .cls-2 {
        fill: #e0e0e6;
      }

      .cls-3, .cls-4 {
        fill: #d42588;
      }

      .cls-5 {
        clip-path: url(#clippath-2);
      }

      .cls-6 {
        clip-path: url(#clippath-1);
      }

      .cls-7 {
        clip-path: url(#clippath-4);
      }

      .cls-8 {
        fill: #fff;
        font-family: CenturyGothic-Bold, 'Century Gothic';
        font-size: 18px;
        font-weight: 700;
        letter-spacing: -.03em;
      }

      .cls-9 {
        fill: #b7b7c5;
      }

      .cls-4 {
        opacity: .07;
      }

      .cls-10 {
        clip-path: url(#clippath);
      }

      .cls-11 {
        fill: none;
      }

      .cls-12 {
        clip-path: url(#clippath-3);
      }

      .cls-13 {
        opacity: .32;
      }

      .cls-14 {
        fill: #ececf0;
      }

      .cls-15 {
        clip-path: url(#clippath-5);
      }

      .cls-16 {
        fill: #f5f5f7;
      }
    </style>
    <clipPath id="clippath">
      <rect class="cls-11" x="208.5" y="113.31" width="32.77" height="37.01" transform="translate(-22.31 214.53) rotate(-48.88)"/>
    </clipPath>
    <clipPath id="clippath-1">
      <rect class="cls-11" x="208.5" y="113.31" width="32.77" height="37.01" transform="translate(-22.31 214.53) rotate(-48.88)"/>
    </clipPath>
    <clipPath id="clippath-2">
      <rect class="cls-11" x="206.63" y="127.37" width="5.88" height="17.83" transform="translate(-30.93 204.52) rotate(-48.88)"/>
    </clipPath>
    <clipPath id="clippath-3">
      <rect class="cls-11" x="100.74" y="19.51" width="52.18" height="46.2" transform="translate(3.16 93.66) rotate(-41)"/>
    </clipPath>
    <clipPath id="clippath-4">
      <rect class="cls-11" x="100.74" y="19.51" width="52.18" height="46.2" transform="translate(3.16 93.66) rotate(-41)"/>
    </clipPath>
    <clipPath id="clippath-5">
      <rect class="cls-11" x="117.55" y="60.73" width="25.14" height="8.29" transform="translate(-10.64 101.28) rotate(-41)"/>
    </clipPath>
  </defs>
  <g id="Layer_1-2" data-name="Layer 1">
    <g>
      <circle class="cls-4" cx="142" cy="142" r="93.5"/>
      <path class="cls-3" d="m131.25,136.25l-.06-93.5s.04,0,.06,0c51.29,0,93.5,42.21,93.5,93.5,0,.19,0,.38,0,.57l-93.5-.57Z"/>
      <g class="cls-10">
        <g class="cls-6">
          <path id="Path_5113-4" data-name="Path 5113-4" class="cls-16" d="m229.57,130.53c-1.22-.96-2.39-1.98-3.5-3.06-.93-1.02-7.36-.03-10.52-.11s1.36,7.48,5.61,7.48c4.25,0,7.88-3.23,8.42-4.31"/>
          <path id="Path_5114-4" data-name="Path 5114-4" class="cls-1" d="m229.57,130.53c-1.22-.96-2.39-1.98-3.5-3.06-.93-1.02-7.36-.03-10.52-.11s1.36,7.48,5.61,7.48c4.25,0,7.88-3.23,8.42-4.31"/>
          <path id="Path_5115-4" data-name="Path 5115-4" class="cls-16" d="m228.95,130.92c-1.13-.89-2.22-1.84-3.26-2.84-.87-.94-6.85-.02-9.79-.1s1.26,6.95,5.21,6.95c3.07-.12,5.94-1.59,7.83-4.01"/>
          <path id="Path_5116-4" data-name="Path 5116-4" class="cls-14" d="m228.95,130.92s-1.07-.85-2.03-1.69c-.32.21-.68.37-1.04.48-.67.17-1.34.3-2.02.39-1.91.16-3.82.2-5.74.11-.99.03-1.99-.05-2.96-.24.78,2.06,3.43,4.96,5.97,4.95,3.07-.12,5.93-1.59,7.83-4.01"/>
          <path id="Path_5117-4" data-name="Path 5117-4" class="cls-16" d="m235.59,141.03s-19.15,1.98-22.1-.08c0,0-.22.94,3.67,3.21,3.89,2.26,3.45,3.81,4.97,4.85s4.81-.53,7.65-.53c2.83,0,3.93-.31,4.24-2.51s.8-4.15,1.57-4.93"/>
          <path id="Path_5118-4" data-name="Path 5118-4" class="cls-1" d="m235.59,141.03s-19.15,1.98-22.1-.08c0,0-.22.94,3.67,3.21,3.89,2.26,3.45,3.81,4.97,4.85s4.81-.53,7.65-.53c2.83,0,3.93-.31,4.24-2.51s.8-4.15,1.57-4.93"/>
          <path id="Path_5119-4" data-name="Path 5119-4" class="cls-16" d="m235,140.83s-18.34,1.9-21.16-.08c0,0-.21.91,3.52,3.07,3.73,2.17,3.3,3.65,4.76,4.64s4.61-.51,7.32-.51,3.77-.29,4.06-2.41.76-3.98,1.5-4.72"/>
          <path id="Path_5120-4" data-name="Path 5120-4" class="cls-14" d="m225.3,146.06c2.89,0,5.75-.59,8.39-1.74.12-1.25.57-2.46,1.3-3.48,0,0-18.34,1.9-21.16-.08,0,0-.21.9,3.52,3.07.67.38,1.31.82,1.9,1.32,1.97.56,4,.87,6.05.91"/>
          <path id="Path_5121-4" data-name="Path 5121-4" class="cls-16" d="m216.14,130.16c4.18,1.49,8.79,1.13,12.69-.99,6.93-3.54,13.21-7.25,16.84.05,3.64,7.3-5.25,12.85-13.32,14.68-8.07,1.83-15.86.81-20.37-3.13-4.51-3.94,4.15-10.61,4.15-10.61"/>
          <path id="Path_5122-4" data-name="Path 5122-4" class="cls-2" d="m243.83,129.85c-3.23-6.49-8.8-3.19-14.96-.05s-12.94.73-12.94.73c-.82.86-1.54,1.81-2.15,2.83.71-.82,1.52-1.56,2.41-2.18,0,0,7.2,1.94,12.68-.86,5.48-2.79,10.43-5.73,13.3.04,2.87,5.77-4.15,10.14-10.52,11.59s-14.49-.42-18.05-3.53c-.52-.42-.88-.99-1.05-1.64-.13,1.27.38,2.51,1.36,3.32,4,3.5,10.92,4.4,18.08,2.78,7.17-1.62,15.06-6.55,11.83-13.03"/>
          <path id="Path_5123-4" data-name="Path 5123-4" class="cls-1" d="m236.34,130.44c-4.03.05-8.38,3.2-13.15,3.68-3.04.25-6.07-.59-8.55-2.37-.84.71-1.47,1.64-1.8,2.69-.17.77-.26,1.56-.27,2.36,3.19,3.05,8.83,4.28,13.85,3.64,4.42-.57,8.48-1.99,10.29-3.26,3.93-2.76,2.52-6.77-.36-6.74"/>
          <path id="Path_5124-4" data-name="Path 5124-4" class="cls-16" d="m215.41,143.16c-1.39-3.25-1.24-6.95.41-10.08,2.82-4.96,3-8.06-1.07-10.24-4.06-2.18-9.51.59-10.24,6.87-.73,6.28,4.16,11.1,10.9,13.46"/>
          <path id="Path_5125-4" data-name="Path 5125-4" class="cls-1" d="m214.63,142.84s-2.72-4.74-.44-8.84,1.86-6.98-1.59-8.87c-3.46-1.89-6.88,1.03-7.37,6.27-.5,5.23,3.7,9.34,9.4,11.44"/>
          <path id="Path_5126-4" data-name="Path 5126-4" class="cls-14" d="m214.05,142.64s-2.59-4.67-.46-8.49,1.88-6.35-1.34-8.12-6.06.64-6.52,5.52c-.46,4.88,3,9.14,8.32,11.09"/>
          <g class="cls-5">
            <path id="Path_5127-4" data-name="Path 5127-4" class="cls-9" d="m214.47,137.61c-2.71-.34-5.2-1.65-7.02-3.68-1.46-1.59-2.39-3.58-2.67-5.72-.13.49-.22.99-.28,1.49-.73,6.28,4.16,11.1,10.9,13.46-.73-1.75-1.05-3.65-.93-5.55"/>
          </g>
        </g>
      </g>
      <path class="cls-11" d="m20,0h244c11.05,0,20,8.95,20,20v264H0V20C0,8.95,8.95,0,20,0Z"/>
      <g id="Group_3175" data-name="Group 3175">
        <g class="cls-12">
          <g id="Group_3162-6" data-name="Group 3162-6">
            <g id="Group_3161-6" data-name="Group 3161-6">
              <g class="cls-7">
                <g id="Group_3160-6" data-name="Group 3160-6">
                  <path id="Path_5113-6" data-name="Path 5113-6" class="cls-16" d="m125.95,35.83c-1.57,1.52-3.22,2.95-4.94,4.3-1.6,1.1-1.46,10.27-2.19,14.67-.73,4.4,10.71-.46,11.52-6.39s-2.99-11.63-4.39-12.58"/>
                  <path id="Path_5114-6" data-name="Path 5114-6" class="cls-1" d="m125.95,35.83c-1.57,1.52-3.22,2.95-4.94,4.3-1.6,1.1-1.46,10.27-2.19,14.67-.73,4.4,10.71-.46,11.52-6.39s-2.99-11.63-4.39-12.58"/>
                  <path id="Path_5115-6" data-name="Path 5115-6" class="cls-16" d="m126.37,36.76c-1.46,1.41-3,2.75-4.6,4-1.49,1.03-1.36,9.55-2.03,13.65-.67,4.1,9.96-.42,10.72-5.94.76-5.52-2.78-10.81-4.09-11.71"/>
                  <path id="Path_5116-6" data-name="Path 5116-6" class="cls-14" d="m126.38,36.77s-1.39,1.33-2.75,2.51c.22.49.38,1.02.46,1.55.11.96.17,1.93.17,2.9.03,2.79-.63,5.29-.96,8.03-.14,1.39-.45,2.76-.91,4.09,3.02-.7,7.58-3.83,8.07-7.38.76-5.52-2.78-10.81-4.09-11.7"/>
                  <path id="Path_5117-6" data-name="Path 5117-6" class="cls-16" d="m141.78,29.44s-.93,27.12-4.39,30.85c0,0,1.27.48,5.19-4.51,3.91-4.99,5.99-4.08,7.73-6.01s.19-6.82.73-10.78.33-5.55-2.69-6.41c-3.02-.86-5.65-1.91-6.57-3.14"/>
                  <path id="Path_5118-6" data-name="Path 5118-6" class="cls-1" d="m141.78,29.44s-.93,27.12-4.39,30.85c0,0,1.27.48,5.19-4.51,3.91-4.99,5.99-4.08,7.73-6.01s.19-6.82.73-10.78.33-5.55-2.69-6.41c-3.02-.86-5.65-1.91-6.57-3.14"/>
                  <path id="Path_5119-6" data-name="Path 5119-6" class="cls-16" d="m141.38,30.24s-.89,25.97-4.2,29.54c0,0,1.22.47,4.97-4.32,3.74-4.78,5.74-3.9,7.4-5.75s.18-6.53.7-10.32.32-5.31-2.57-6.14-5.41-1.83-6.29-3.01"/>
                  <path id="Path_5120-6" data-name="Path 5120-6" class="cls-14" d="m146.8,44.78c.56-4.03.29-8.14-.81-12.06-2.15-.72-3.91-1.55-4.62-2.49,0,0-.89,25.97-4.2,29.54,0,0,1.22.47,4.97-4.32.66-.86,1.4-1.67,2.21-2.4,1.16-2.64,1.98-5.43,2.45-8.28"/>
                  <path id="Path_5121-6" data-name="Path 5121-6" class="cls-16" d="m122.83,54.51s4.68-7.55,1.07-17.92c-3.6-10.37-7.57-19.84,3.33-23.51,10.9-3.67,16.93,9.82,17.92,21.44s-1.94,22.3-8.31,27.84c-6.37,5.54-14.02-7.85-14.02-7.85"/>
                  <path id="Path_5122-6" data-name="Path 5122-6" class="cls-2" d="m127.76,15.78c-9.68,3.26-6.16,11.67-2.95,20.87,3.2,9.2-1.49,18.22-1.49,18.22,1.04,1.31,2.23,2.49,3.53,3.54-1.01-1.15-1.88-2.42-2.58-3.78,0,0,4.1-9.69,1.25-17.87s-5.98-15.66,2.63-18.56c8.61-2.9,13.36,7.75,14.15,16.92.79,9.17-3.39,20.15-8.42,24.52-.68.64-1.56,1.04-2.49,1.14,1.74.42,3.58-.05,4.9-1.26,5.66-4.92,8.26-14.4,7.38-24.71-.88-10.32-6.24-22.29-15.91-19.03"/>
                  <path id="Path_5123-6" data-name="Path 5123-6" class="cls-1" d="m127.13,26.35c-.71,5.64,2.85,12.33,2.6,19.07-.24,4.29-2,8.36-4.96,11.48.83,1.31,2.01,2.36,3.41,3.03,1.05.38,2.14.66,3.24.83,4.88-3.88,7.69-11.5,7.75-18.63.06-6.29-1.14-12.23-2.57-14.99-3.1-6.02-8.97-4.83-9.48-.79"/>
                  <path id="Path_5124-6" data-name="Path 5124-6" class="cls-16" d="m140.85,58.04s-7.61,2.37-14-2.52c-6.39-4.89-10.68-5.74-14.51-.49s-1.02,13.4,7.61,15.63,16.31-3.67,20.9-12.62"/>
                  <path id="Path_5125-6" data-name="Path 5125-6" class="cls-1" d="m140.25,59.07s-7.14,2.88-12.42-1.09c-5.28-3.98-9.38-3.95-12.69.5s.12,9.8,7.32,11.51c7.21,1.71,13.77-3.36,17.79-10.92"/>
                  <path id="Path_5126-6" data-name="Path 5126-6" class="cls-14" d="m139.86,59.83s-7.02,2.71-11.95-1-8.5-3.85-11.59.3c-3.09,4.15-.27,8.58,6.44,10.17,6.71,1.58,13.35-2.43,17.1-9.48"/>
                  <g id="Group_3159-6" data-name="Group 3159-6" class="cls-13">
                    <g id="Group_3158-6" data-name="Group 3158-6">
                      <g class="cls-15">
                        <g id="Group_3157-6" data-name="Group 3157-6">
                          <path id="Path_5127-6" data-name="Path 5127-6" class="cls-9" d="m132.91,58.28c-1,3.71-3.31,6.94-6.5,9.09-2.5,1.73-5.46,2.64-8.5,2.62.66.27,1.34.5,2.03.68,8.63,2.23,16.31-3.67,20.9-12.63-2.59.69-5.31.77-7.93.24"/>
                        </g>
                      </g>
                    </g>
                  </g>
                </g>
              </g>
            </g>
          </g>
        </g>
      </g>
      <text class="cls-8" transform="translate(137.85 130.28)"><tspan x="0" y="0">2-3 hrs</tspan></text>
    </g>
  </g>
</svg>