<?xml version="1.0" encoding="UTF-8"?>
<svg id="Layer_2" data-name="Layer 2" xmlns="http://www.w3.org/2000/svg" xmlns:xlink="http://www.w3.org/1999/xlink" viewBox="0 0 284 284">
  <defs>
    <style>
      .cls-1 {
        fill: #ced2db;
      }

      .cls-2 {
        fill: #e0e0e6;
      }

      .cls-3, .cls-4 {
        fill: #d42588;
      }

      .cls-5 {
        clip-path: url(#clippath-2);
      }

      .cls-6 {
        clip-path: url(#clippath-1);
      }

      .cls-7 {
        clip-path: url(#clippath-4);
      }

      .cls-8 {
        fill: #fff;
        font-family: CenturyGothic-Bold, 'Century Gothic';
        font-size: 18px;
        font-weight: 700;
        letter-spacing: -.03em;
      }

      .cls-9 {
        fill: #b7b7c5;
      }

      .cls-4 {
        opacity: .07;
      }

      .cls-10 {
        clip-path: url(#clippath);
      }

      .cls-11 {
        fill: none;
      }

      .cls-12 {
        clip-path: url(#clippath-3);
      }

      .cls-13 {
        opacity: .32;
      }

      .cls-14 {
        fill: #ececf0;
      }

      .cls-15 {
        clip-path: url(#clippath-5);
      }

      .cls-16 {
        fill: #f5f5f7;
      }
    </style>
    <clipPath id="clippath">
      <rect class="cls-11" x="37.5" y="167.31" width="32.77" height="37.01" transform="translate(-136.93 217.73) rotate(-83.32)"/>
    </clipPath>
    <clipPath id="clippath-1">
      <rect class="cls-11" x="37.5" y="167.31" width="32.77" height="37.01" transform="translate(-136.93 217.73) rotate(-83.32)"/>
    </clipPath>
    <clipPath id="clippath-2">
      <rect class="cls-11" x="40.84" y="189.25" width="5.88" height="17.83" transform="translate(-158.13 218.61) rotate(-83.32)"/>
    </clipPath>
    <clipPath id="clippath-3">
      <rect class="cls-11" x="100.74" y="19.51" width="52.18" height="46.2" transform="translate(3.16 93.66) rotate(-41)"/>
    </clipPath>
    <clipPath id="clippath-4">
      <rect class="cls-11" x="100.74" y="19.51" width="52.18" height="46.2" transform="translate(3.16 93.66) rotate(-41)"/>
    </clipPath>
    <clipPath id="clippath-5">
      <rect class="cls-11" x="117.55" y="60.73" width="25.14" height="8.29" transform="translate(-10.64 101.28) rotate(-41)"/>
    </clipPath>
  </defs>
  <g id="Layer_1-2" data-name="Layer 1">
    <g>
      <circle class="cls-4" cx="142" cy="142" r="93.5"/>
      <path class="cls-3" d="m131.25,136.25l-.06-93.5s.04,0,.06,0c51.29,0,93.5,42.21,93.5,93.5s-42.21,93.5-93.5,93.5c-31.14,0-60.31-15.56-77.66-41.42l77.66-52.08Z"/>
      <g class="cls-10">
        <g class="cls-6">
          <path id="Path_5113-4" data-name="Path 5113-4" class="cls-16" d="m57.02,182.11c-1.55-.1-3.09-.28-4.62-.54-1.34-.31-6.08,4.14-8.74,5.86s5.35,5.4,8.85,2.99c3.5-2.41,4.67-7.12,4.5-8.31"/>
          <path id="Path_5114-4" data-name="Path 5114-4" class="cls-1" d="m57.02,182.11c-1.55-.1-3.09-.28-4.62-.54-1.34-.31-6.08,4.14-8.74,5.86s5.35,5.4,8.85,2.99c3.5-2.41,4.67-7.12,4.5-8.31"/>
          <path id="Path_5115-4" data-name="Path 5115-4" class="cls-16" d="m56.73,182.78c-1.44-.09-2.87-.26-4.29-.5-1.25-.29-5.66,3.85-8.13,5.45s4.98,5.02,8.23,2.78c2.47-1.84,4-4.67,4.19-7.74"/>
          <path id="Path_5116-4" data-name="Path 5116-4" class="cls-14" d="m56.73,182.78s-1.36-.09-2.63-.24c-.15.35-.35.69-.59.99-.45.52-.93,1.01-1.44,1.47-1.48,1.21-3.04,2.33-4.67,3.33-.8.59-1.66,1.09-2.58,1.48,1.81,1.25,5.63,2.15,7.72.71,2.47-1.84,4-4.66,4.19-7.73"/>
          <path id="Path_5117-4" data-name="Path 5117-4" class="cls-16" d="m67.93,187.36s-14.67,12.46-18.27,12.43c0,0,.35.9,4.84.57,4.49-.34,5,1.19,6.84,1.18s3.67-3.16,6-4.77c2.34-1.6,3.07-2.48,2.08-4.47s-1.69-3.88-1.49-4.95"/>
          <path id="Path_5118-4" data-name="Path 5118-4" class="cls-1" d="m67.93,187.36s-14.67,12.46-18.27,12.43c0,0,.35.9,4.84.57,4.49-.34,5,1.19,6.84,1.18s3.67-3.16,6-4.77c2.34-1.6,3.07-2.48,2.08-4.47s-1.69-3.88-1.49-4.95"/>
          <path id="Path_5119-4" data-name="Path 5119-4" class="cls-16" d="m67.32,187.53s-14.05,11.94-17.5,11.91c0,0,.34.86,4.64.54,4.3-.32,4.79,1.14,6.55,1.13s3.51-3.03,5.75-4.56,2.94-2.37,1.99-4.28-1.62-3.71-1.43-4.74"/>
          <path id="Path_5120-4" data-name="Path 5120-4" class="cls-14" d="m62.28,197.32c2.38-1.63,4.4-3.74,5.94-6.18-.61-1.11-.92-2.35-.9-3.61,0,0-14.05,11.94-17.5,11.91,0,0,.34.86,4.64.54.77-.07,1.54-.06,2.31.01,1.94-.65,3.79-1.55,5.51-2.67"/>
          <path id="Path_5121-4" data-name="Path 5121-4" class="cls-16" d="m45.74,189.4c4.29-1.14,7.89-4.04,9.91-7.99,3.72-6.84,6.79-13.45,13.92-9.48,7.13,3.97,2.94,13.57-2.68,19.64-5.62,6.07-12.62,9.63-18.57,8.94-5.95-.7-2.58-11.1-2.58-11.1"/>
          <path id="Path_5122-4" data-name="Path 5122-4" class="cls-2" d="m68.4,173.49c-6.33-3.52-9.06,2.34-12.36,8.42s-10.26,7.92-10.26,7.92c-.19,1.17-.24,2.36-.17,3.54.12-1.08.37-2.14.75-3.16,0,0,7.04-2.48,9.97-7.88s5.36-10.62,10.99-7.49c5.63,3.13,2.32,10.71-2.12,15.5s-12.19,7.84-16.88,7.29c-.66-.05-1.29-.32-1.79-.76.61,1.12,1.74,1.86,3,1.97,5.28.62,11.49-2.54,16.48-7.94,4.99-5.39,8.71-13.92,2.38-17.44"/>
          <path id="Path_5123-4" data-name="Path 5123-4" class="cls-1" d="m62.56,178.21c-3.29,2.32-5.1,7.38-8.76,10.47-2.37,1.92-5.34,2.94-8.39,2.88-.29,1.06-.28,2.18.04,3.24.3.73.67,1.44,1.11,2.1,4.36.71,9.7-1.46,13.47-4.83,3.33-2.97,5.87-6.44,6.64-8.5,1.68-4.5-1.75-7.01-4.11-5.35"/>
          <path id="Path_5124-4" data-name="Path 5124-4" class="cls-16" d="m52.49,200.53c-2.98-1.9-4.95-5.04-5.37-8.55-.48-5.69-2.09-8.34-6.67-7.84-4.58.5-7.51,5.87-4.56,11.46,2.95,5.59,9.71,6.8,16.6,4.93"/>
          <path id="Path_5125-4" data-name="Path 5125-4" class="cls-1" d="m51.66,200.71s-4.92-2.37-5.36-7.04-2.41-6.81-6.33-6.41c-3.92.4-5.09,4.74-2.54,9.34s8.34,5.61,14.22,4.11"/>
          <path id="Path_5126-4" data-name="Path 5126-4" class="cls-14" d="m51.08,200.87s-4.78-2.39-5.18-6.74-2.04-6.3-5.69-5.94c-3.65.36-4.63,3.95-2.26,8.24,2.37,4.28,7.65,5.84,13.13,4.44"/>
          <g class="cls-5">
            <path id="Path_5127-4" data-name="Path 5127-4" class="cls-9" d="m48.58,196.48c-2.43,1.25-5.22,1.58-7.87.94-2.1-.48-4-1.6-5.43-3.21.17.48.38.94.61,1.39,2.95,5.59,9.71,6.8,16.6,4.93-1.6-1.03-2.94-2.42-3.91-4.05"/>
          </g>
        </g>
      </g>
      <path class="cls-11" d="m20,0h244c11.05,0,20,8.95,20,20v264H0V20C0,8.95,8.95,0,20,0Z"/>
      <g id="Group_3175" data-name="Group 3175">
        <g class="cls-12">
          <g id="Group_3162-6" data-name="Group 3162-6">
            <g id="Group_3161-6" data-name="Group 3161-6">
              <g class="cls-7">
                <g id="Group_3160-6" data-name="Group 3160-6">
                  <path id="Path_5113-6" data-name="Path 5113-6" class="cls-16" d="m125.95,35.83c-1.57,1.52-3.22,2.95-4.94,4.3-1.6,1.1-1.46,10.27-2.19,14.67-.73,4.4,10.71-.46,11.52-6.39s-2.99-11.63-4.39-12.58"/>
                  <path id="Path_5114-6" data-name="Path 5114-6" class="cls-1" d="m125.95,35.83c-1.57,1.52-3.22,2.95-4.94,4.3-1.6,1.1-1.46,10.27-2.19,14.67-.73,4.4,10.71-.46,11.52-6.39s-2.99-11.63-4.39-12.58"/>
                  <path id="Path_5115-6" data-name="Path 5115-6" class="cls-16" d="m126.37,36.76c-1.46,1.41-3,2.75-4.6,4-1.49,1.03-1.36,9.55-2.03,13.65-.67,4.1,9.96-.42,10.72-5.94.76-5.52-2.78-10.81-4.09-11.71"/>
                  <path id="Path_5116-6" data-name="Path 5116-6" class="cls-14" d="m126.38,36.77s-1.39,1.33-2.75,2.51c.22.49.38,1.02.46,1.55.11.96.17,1.93.17,2.9.03,2.79-.63,5.29-.96,8.03-.14,1.39-.45,2.76-.91,4.09,3.02-.7,7.58-3.83,8.07-7.38.76-5.52-2.78-10.81-4.09-11.7"/>
                  <path id="Path_5117-6" data-name="Path 5117-6" class="cls-16" d="m141.78,29.44s-.93,27.12-4.39,30.85c0,0,1.27.48,5.19-4.51,3.91-4.99,5.99-4.08,7.73-6.01s.19-6.82.73-10.78.33-5.55-2.69-6.41c-3.02-.86-5.65-1.91-6.57-3.14"/>
                  <path id="Path_5118-6" data-name="Path 5118-6" class="cls-1" d="m141.78,29.44s-.93,27.12-4.39,30.85c0,0,1.27.48,5.19-4.51,3.91-4.99,5.99-4.08,7.73-6.01s.19-6.82.73-10.78.33-5.55-2.69-6.41c-3.02-.86-5.65-1.91-6.57-3.14"/>
                  <path id="Path_5119-6" data-name="Path 5119-6" class="cls-16" d="m141.38,30.24s-.89,25.97-4.2,29.54c0,0,1.22.47,4.97-4.32,3.74-4.78,5.74-3.9,7.4-5.75s.18-6.53.7-10.32.32-5.31-2.57-6.14-5.41-1.83-6.29-3.01"/>
                  <path id="Path_5120-6" data-name="Path 5120-6" class="cls-14" d="m146.8,44.78c.56-4.03.29-8.14-.81-12.06-2.15-.72-3.91-1.55-4.62-2.49,0,0-.89,25.97-4.2,29.54,0,0,1.22.47,4.97-4.32.66-.86,1.4-1.67,2.21-2.4,1.16-2.64,1.98-5.43,2.45-8.28"/>
                  <path id="Path_5121-6" data-name="Path 5121-6" class="cls-16" d="m122.83,54.51s4.68-7.55,1.07-17.92c-3.6-10.37-7.57-19.84,3.33-23.51,10.9-3.67,16.93,9.82,17.92,21.44s-1.94,22.3-8.31,27.84c-6.37,5.54-14.02-7.85-14.02-7.85"/>
                  <path id="Path_5122-6" data-name="Path 5122-6" class="cls-2" d="m127.76,15.78c-9.68,3.26-6.16,11.67-2.95,20.87,3.2,9.2-1.49,18.22-1.49,18.22,1.04,1.31,2.23,2.49,3.53,3.54-1.01-1.15-1.88-2.42-2.58-3.78,0,0,4.1-9.69,1.25-17.87s-5.98-15.66,2.63-18.56c8.61-2.9,13.36,7.75,14.15,16.92.79,9.17-3.39,20.15-8.42,24.52-.68.64-1.56,1.04-2.49,1.14,1.74.42,3.58-.05,4.9-1.26,5.66-4.92,8.26-14.4,7.38-24.71-.88-10.32-6.24-22.29-15.91-19.03"/>
                  <path id="Path_5123-6" data-name="Path 5123-6" class="cls-1" d="m127.13,26.35c-.71,5.64,2.85,12.33,2.6,19.07-.24,4.29-2,8.36-4.96,11.48.83,1.31,2.01,2.36,3.41,3.03,1.05.38,2.14.66,3.24.83,4.88-3.88,7.69-11.5,7.75-18.63.06-6.29-1.14-12.23-2.57-14.99-3.1-6.02-8.97-4.83-9.48-.79"/>
                  <path id="Path_5124-6" data-name="Path 5124-6" class="cls-16" d="m140.85,58.04s-7.61,2.37-14-2.52c-6.39-4.89-10.68-5.74-14.51-.49s-1.02,13.4,7.61,15.63,16.31-3.67,20.9-12.62"/>
                  <path id="Path_5125-6" data-name="Path 5125-6" class="cls-1" d="m140.25,59.07s-7.14,2.88-12.42-1.09c-5.28-3.98-9.38-3.95-12.69.5s.12,9.8,7.32,11.51c7.21,1.71,13.77-3.36,17.79-10.92"/>
                  <path id="Path_5126-6" data-name="Path 5126-6" class="cls-14" d="m139.86,59.83s-7.02,2.71-11.95-1-8.5-3.85-11.59.3c-3.09,4.15-.27,8.58,6.44,10.17,6.71,1.58,13.35-2.43,17.1-9.48"/>
                  <g id="Group_3159-6" data-name="Group 3159-6" class="cls-13">
                    <g id="Group_3158-6" data-name="Group 3158-6">
                      <g class="cls-15">
                        <g id="Group_3157-6" data-name="Group 3157-6">
                          <path id="Path_5127-6" data-name="Path 5127-6" class="cls-9" d="m132.91,58.28c-1,3.71-3.31,6.94-6.5,9.09-2.5,1.73-5.46,2.64-8.5,2.62.66.27,1.34.5,2.03.68,8.63,2.23,16.31-3.67,20.9-12.63-2.59.69-5.31.77-7.93.24"/>
                        </g>
                      </g>
                    </g>
                  </g>
                </g>
              </g>
            </g>
          </g>
        </g>
      </g>
      <text class="cls-8" transform="translate(94.82 181.17) rotate(-33.85)"><tspan x="0" y="0">8 hrs</tspan></text>
    </g>
  </g>
</svg>