<?xml version="1.0" encoding="UTF-8"?>
<svg id="Layer_2" data-name="Layer 2" xmlns="http://www.w3.org/2000/svg" xmlns:xlink="http://www.w3.org/1999/xlink" viewBox="0 0 284 284">
  <defs>
    <style>
      .cls-1 {
        fill: #ced2db;
      }

      .cls-2 {
        fill: #e0e0e6;
      }

      .cls-3, .cls-4 {
        fill: #d42588;
      }

      .cls-5 {
        clip-path: url(#clippath-2);
      }

      .cls-6 {
        clip-path: url(#clippath-1);
      }

      .cls-7 {
        clip-path: url(#clippath-4);
      }

      .cls-8 {
        fill: #fff;
        font-family: CenturyGothic-Bold, 'Century Gothic';
        font-size: 18px;
        font-weight: 700;
        letter-spacing: -.03em;
      }

      .cls-9 {
        fill: #b7b7c5;
      }

      .cls-4 {
        opacity: .07;
      }

      .cls-10 {
        clip-path: url(#clippath);
      }

      .cls-11 {
        fill: none;
      }

      .cls-12 {
        clip-path: url(#clippath-3);
      }

      .cls-13 {
        opacity: .32;
      }

      .cls-14 {
        fill: #ececf0;
      }

      .cls-15 {
        clip-path: url(#clippath-5);
      }

      .cls-16 {
        fill: #f5f5f7;
      }
    </style>
    <clipPath id="clippath">
      <rect class="cls-11" x="186.5" y="174.31" width="32.77" height="37.01" transform="translate(-23.59 28.35) rotate(-7.56)"/>
    </clipPath>
    <clipPath id="clippath-1">
      <rect class="cls-11" x="186.5" y="174.31" width="32.77" height="37.01" transform="translate(-23.59 28.35) rotate(-7.56)"/>
    </clipPath>
    <clipPath id="clippath-2">
      <rect class="cls-11" x="185.49" y="177.14" width="5.88" height="17.83" transform="translate(-22.83 26.39) rotate(-7.56)"/>
    </clipPath>
    <clipPath id="clippath-3">
      <rect class="cls-11" x="100.74" y="19.51" width="52.18" height="46.2" transform="translate(3.16 93.66) rotate(-41)"/>
    </clipPath>
    <clipPath id="clippath-4">
      <rect class="cls-11" x="100.74" y="19.51" width="52.18" height="46.2" transform="translate(3.16 93.66) rotate(-41)"/>
    </clipPath>
    <clipPath id="clippath-5">
      <rect class="cls-11" x="117.55" y="60.73" width="25.14" height="8.29" transform="translate(-10.64 101.28) rotate(-41)"/>
    </clipPath>
  </defs>
  <g id="Layer_1-2" data-name="Layer 1">
    <g>
      <circle class="cls-4" cx="142" cy="142" r="93.5"/>
      <path class="cls-3" d="m131.25,136.25l-.06-93.5s.04,0,.06,0c51.29,0,93.5,42.21,93.5,93.5,0,22.85-8.38,44.93-23.54,62.03l-69.96-62.03Z"/>
      <g class="cls-10">
        <g class="cls-6">
          <path id="Path_5113-4" data-name="Path 5113-4" class="cls-16" d="m207.25,194.94c-.28-1.52-.49-3.06-.61-4.61-.03-1.38-5.51-4.88-7.83-7.03s-3.92,6.51-.72,9.32c3.19,2.8,8.05,2.78,9.17,2.32"/>
          <path id="Path_5114-4" data-name="Path 5114-4" class="cls-1" d="m207.25,194.94c-.28-1.52-.49-3.06-.61-4.61-.03-1.38-5.51-4.88-7.83-7.03s-3.92,6.51-.72,9.32c3.19,2.8,8.05,2.78,9.17,2.32"/>
          <path id="Path_5115-4" data-name="Path 5115-4" class="cls-16" d="m206.53,194.83c-.26-1.42-.45-2.85-.57-4.28-.03-1.28-5.13-4.54-7.29-6.54s-3.64,6.06-.67,8.66c2.39,1.94,5.51,2.73,8.53,2.16"/>
          <path id="Path_5116-4" data-name="Path 5116-4" class="cls-14" d="m206.53,194.83s-.24-1.34-.41-2.61c-.38-.06-.75-.17-1.1-.33-.61-.31-1.21-.66-1.78-1.04-1.54-1.14-3-2.37-4.38-3.71-.77-.63-1.46-1.35-2.06-2.14-.77,2.06-.7,5.98,1.21,7.66,2.39,1.94,5.5,2.73,8.52,2.16"/>
          <path id="Path_5117-4" data-name="Path 5117-4" class="cls-16" d="m204.84,206.8s-15.69-11.15-16.54-14.65c0,0-.79.57.64,4.83,1.43,4.27.08,5.13.53,6.92s3.97,2.78,6.1,4.65c2.13,1.87,3.16,2.37,4.84.91s3.34-2.59,4.43-2.67"/>
          <path id="Path_5118-4" data-name="Path 5118-4" class="cls-1" d="m204.84,206.8s-15.69-11.15-16.54-14.65c0,0-.79.57.64,4.83,1.43,4.27.08,5.13.53,6.92s3.97,2.78,6.1,4.65c2.13,1.87,3.16,2.37,4.84.91s3.34-2.59,4.43-2.67"/>
          <path id="Path_5119-4" data-name="Path 5119-4" class="cls-16" d="m204.53,206.26s-15.02-10.68-15.84-14.03c0,0-.75.54.61,4.63,1.37,4.09.07,4.92.51,6.63s3.8,2.66,5.84,4.45,3.02,2.27,4.64.87,3.2-2.49,4.24-2.55"/>
          <path id="Path_5120-4" data-name="Path 5120-4" class="cls-14" d="m193.8,203.78c2.17,1.91,4.7,3.35,7.45,4.23.92-.86,2.05-1.47,3.28-1.76,0,0-15.02-10.68-15.84-14.03,0,0-.75.54.61,4.63.25.73.44,1.48.56,2.25,1.11,1.72,2.44,3.29,3.94,4.68"/>
          <path id="Path_5121-4" data-name="Path 5121-4" class="cls-16" d="m197.41,185.79c2.16,3.88,5.86,6.66,10.18,7.64,7.55,1.92,14.7,3.28,12.61,11.16-2.09,7.89-12.43,6.18-19.69,2.23-7.26-3.96-12.44-9.86-13.23-15.8-.79-5.93,10.13-5.23,10.13-5.23"/>
          <path id="Path_5122-4" data-name="Path 5122-4" class="cls-2" d="m218.41,203.85c1.86-7-4.5-8.21-11.2-9.91-6.7-1.71-10.2-8-10.2-8-1.18.11-2.35.34-3.48.7,1.08-.15,2.17-.17,3.25-.05,0,0,4.13,6.21,10.09,7.73s11.61,2.58,9.96,8.81c-1.65,6.23-9.81,4.88-15.55,1.76-5.74-3.12-10.6-9.88-11.22-14.57-.11-.66,0-1.33.3-1.92-.93.87-1.37,2.14-1.17,3.4.7,5.27,5.29,10.52,11.75,14.03,6.45,3.51,15.63,5.02,17.49-1.98"/>
          <path id="Path_5123-4" data-name="Path 5123-4" class="cls-1" d="m212.4,199.35c-3.06-2.62-8.41-3.13-12.31-5.92-2.45-1.82-4.17-4.45-4.85-7.43-1.1-.02-2.18.27-3.13.83-.64.47-1.23,1-1.76,1.59.38,4.4,3.8,9.05,8,11.87,3.7,2.49,7.69,4.11,9.88,4.35,4.77.52,6.37-3.42,4.18-5.3"/>
          <path id="Path_5124-4" data-name="Path 5124-4" class="cls-16" d="m188.28,195.07c1.11-3.36,3.66-6.04,6.96-7.31,5.4-1.87,7.57-4.08,5.96-8.4-1.61-4.32-7.53-5.84-12.23-1.61-4.69,4.23-4.2,11.09-.7,17.31"/>
          <path id="Path_5125-4" data-name="Path 5125-4" class="cls-1" d="m187.9,194.32s1.09-5.35,5.51-6.92,6-4.01,4.66-7.71c-1.35-3.7-5.85-3.76-9.67-.16s-3.39,9.46-.49,14.8"/>
          <path id="Path_5126-4" data-name="Path 5126-4" class="cls-14" d="m187.6,193.79s1.14-5.22,5.26-6.68,5.6-3.53,4.35-6.98c-1.25-3.45-4.97-3.52-8.54-.16-3.57,3.36-3.78,8.85-1.07,13.82"/>
          <g class="cls-5">
            <path id="Path_5127-4" data-name="Path 5127-4" class="cls-9" d="m191.24,190.29c-1.81-2.04-2.82-4.67-2.84-7.4-.05-2.15.57-4.27,1.77-6.05-.42.28-.82.6-1.19.94-4.69,4.23-4.2,11.09-.7,17.31.61-1.8,1.62-3.44,2.96-4.79"/>
          </g>
        </g>
      </g>
      <path class="cls-11" d="m20,0h244c11.05,0,20,8.95,20,20v264H0V20C0,8.95,8.95,0,20,0Z"/>
      <g id="Group_3175" data-name="Group 3175">
        <g class="cls-12">
          <g id="Group_3162-6" data-name="Group 3162-6">
            <g id="Group_3161-6" data-name="Group 3161-6">
              <g class="cls-7">
                <g id="Group_3160-6" data-name="Group 3160-6">
                  <path id="Path_5113-6" data-name="Path 5113-6" class="cls-16" d="m125.95,35.83c-1.57,1.52-3.22,2.95-4.94,4.3-1.6,1.1-1.46,10.27-2.19,14.67-.73,4.4,10.71-.46,11.52-6.39s-2.99-11.63-4.39-12.58"/>
                  <path id="Path_5114-6" data-name="Path 5114-6" class="cls-1" d="m125.95,35.83c-1.57,1.52-3.22,2.95-4.94,4.3-1.6,1.1-1.46,10.27-2.19,14.67-.73,4.4,10.71-.46,11.52-6.39s-2.99-11.63-4.39-12.58"/>
                  <path id="Path_5115-6" data-name="Path 5115-6" class="cls-16" d="m126.37,36.76c-1.46,1.41-3,2.75-4.6,4-1.49,1.03-1.36,9.55-2.03,13.65-.67,4.1,9.96-.42,10.72-5.94.76-5.52-2.78-10.81-4.09-11.71"/>
                  <path id="Path_5116-6" data-name="Path 5116-6" class="cls-14" d="m126.38,36.77s-1.39,1.33-2.75,2.51c.22.49.38,1.02.46,1.55.11.96.17,1.93.17,2.9.03,2.79-.63,5.29-.96,8.03-.14,1.39-.45,2.76-.91,4.09,3.02-.7,7.58-3.83,8.07-7.38.76-5.52-2.78-10.81-4.09-11.7"/>
                  <path id="Path_5117-6" data-name="Path 5117-6" class="cls-16" d="m141.78,29.44s-.93,27.12-4.39,30.85c0,0,1.27.48,5.19-4.51,3.91-4.99,5.99-4.08,7.73-6.01s.19-6.82.73-10.78.33-5.55-2.69-6.41c-3.02-.86-5.65-1.91-6.57-3.14"/>
                  <path id="Path_5118-6" data-name="Path 5118-6" class="cls-1" d="m141.78,29.44s-.93,27.12-4.39,30.85c0,0,1.27.48,5.19-4.51,3.91-4.99,5.99-4.08,7.73-6.01s.19-6.82.73-10.78.33-5.55-2.69-6.41c-3.02-.86-5.65-1.91-6.57-3.14"/>
                  <path id="Path_5119-6" data-name="Path 5119-6" class="cls-16" d="m141.38,30.24s-.89,25.97-4.2,29.54c0,0,1.22.47,4.97-4.32,3.74-4.78,5.74-3.9,7.4-5.75s.18-6.53.7-10.32.32-5.31-2.57-6.14-5.41-1.83-6.29-3.01"/>
                  <path id="Path_5120-6" data-name="Path 5120-6" class="cls-14" d="m146.8,44.78c.56-4.03.29-8.14-.81-12.06-2.15-.72-3.91-1.55-4.62-2.49,0,0-.89,25.97-4.2,29.54,0,0,1.22.47,4.97-4.32.66-.86,1.4-1.67,2.21-2.4,1.16-2.64,1.98-5.43,2.45-8.28"/>
                  <path id="Path_5121-6" data-name="Path 5121-6" class="cls-16" d="m122.83,54.51s4.68-7.55,1.07-17.92c-3.6-10.37-7.57-19.84,3.33-23.51,10.9-3.67,16.93,9.82,17.92,21.44s-1.94,22.3-8.31,27.84c-6.37,5.54-14.02-7.85-14.02-7.85"/>
                  <path id="Path_5122-6" data-name="Path 5122-6" class="cls-2" d="m127.76,15.78c-9.68,3.26-6.16,11.67-2.95,20.87,3.2,9.2-1.49,18.22-1.49,18.22,1.04,1.31,2.23,2.49,3.53,3.54-1.01-1.15-1.88-2.42-2.58-3.78,0,0,4.1-9.69,1.25-17.87s-5.98-15.66,2.63-18.56c8.61-2.9,13.36,7.75,14.15,16.92.79,9.17-3.39,20.15-8.42,24.52-.68.64-1.56,1.04-2.49,1.14,1.74.42,3.58-.05,4.9-1.26,5.66-4.92,8.26-14.4,7.38-24.71-.88-10.32-6.24-22.29-15.91-19.03"/>
                  <path id="Path_5123-6" data-name="Path 5123-6" class="cls-1" d="m127.13,26.35c-.71,5.64,2.85,12.33,2.6,19.07-.24,4.29-2,8.36-4.96,11.48.83,1.31,2.01,2.36,3.41,3.03,1.05.38,2.14.66,3.24.83,4.88-3.88,7.69-11.5,7.75-18.63.06-6.29-1.14-12.23-2.57-14.99-3.1-6.02-8.97-4.83-9.48-.79"/>
                  <path id="Path_5124-6" data-name="Path 5124-6" class="cls-16" d="m140.85,58.04s-7.61,2.37-14-2.52c-6.39-4.89-10.68-5.74-14.51-.49s-1.02,13.4,7.61,15.63,16.31-3.67,20.9-12.62"/>
                  <path id="Path_5125-6" data-name="Path 5125-6" class="cls-1" d="m140.25,59.07s-7.14,2.88-12.42-1.09c-5.28-3.98-9.38-3.95-12.69.5s.12,9.8,7.32,11.51c7.21,1.71,13.77-3.36,17.79-10.92"/>
                  <path id="Path_5126-6" data-name="Path 5126-6" class="cls-14" d="m139.86,59.83s-7.02,2.71-11.95-1-8.5-3.85-11.59.3c-3.09,4.15-.27,8.58,6.44,10.17,6.71,1.58,13.35-2.43,17.1-9.48"/>
                  <g id="Group_3159-6" data-name="Group 3159-6" class="cls-13">
                    <g id="Group_3158-6" data-name="Group 3158-6">
                      <g class="cls-15">
                        <g id="Group_3157-6" data-name="Group 3157-6">
                          <path id="Path_5127-6" data-name="Path 5127-6" class="cls-9" d="m132.91,58.28c-1,3.71-3.31,6.94-6.5,9.09-2.5,1.73-5.46,2.64-8.5,2.62.66.27,1.34.5,2.03.68,8.63,2.23,16.31-3.67,20.9-12.63-2.59.69-5.31.77-7.93.24"/>
                        </g>
                      </g>
                    </g>
                  </g>
                </g>
              </g>
            </g>
          </g>
        </g>
      </g>
      <text class="cls-8" transform="translate(138.99 135.67) rotate(41.56)"><tspan x="0" y="0">3-5 hrs</tspan></text>
    </g>
  </g>
</svg>