<?xml version="1.0" encoding="UTF-8"?>
<svg id="Layer_2" data-name="Layer 2" xmlns="http://www.w3.org/2000/svg" xmlns:xlink="http://www.w3.org/1999/xlink" viewBox="0 0 212 214.75">
  <defs>
    <style>
      .cls-1 {
        fill: #0f138c;
      }

      .cls-2 {
        fill: #d42588;
      }

      .cls-3 {
        clip-path: url(#clippath-1);
      }

      .cls-4 {
        clip-path: url(#clippath);
      }

      .cls-5 {
        fill: none;
      }
    </style>
    <clipPath id="clippath">
      <path class="cls-5" d="m20,0h172c11.05,0,20,9.07,20,20.26v194.49H0V20.26C0,9.07,8.95,0,20,0Z"/>
    </clipPath>
    <clipPath id="clippath-1">
      <polygon class="cls-5" points="40.79 30.89 107.42 6.32 171.21 183.86 104.58 208.43 40.79 30.89"/>
    </clipPath>
  </defs>
  <g id="Layer_1-2" data-name="Layer 1">
    <g class="cls-4">
      <g id="Mask_Group_18" data-name="Mask Group 18">
        <g id="Group_3076-3" data-name="Group 3076-3">
          <g class="cls-3">
            <g id="Group_3075-3" data-name="Group 3075-3">
              <path id="Path_4441-4" data-name="Path 4441-4" class="cls-1" d="m138.57,195.75c-7.94,3.18-15.36,4.89-23.28,3.49-9.34-1.65-15.36-7.54-19.3-15.72-4.77-9.9-6.59-20.74-9.01-31.39-1.62-7.13-2.68-14.44-5.51-21.27-2.01-4.84-2.65-10.13-4.74-14.96-4.67-10.87-9.03-21.86-14.61-32.33-3.38-6.34-6.48-12.87-9.33-19.53-3.03-6.67-4.2-14.05-3.37-21.35.47-3.52,1.83-6.86,3.96-9.68,4.71-6.43,11.28-11.21,18.79-13.68,5.46-1.91,10.81-4.02,16.69-4.35,5.58-.31,10.66,1.35,15.62,3.51,5.69,2.48,8.96,7.75,11.6,12.77,2.05,3.9,3.18,8.64,4.29,13.13,1.58,6.42,3.07,12.87,4.56,19.32,1.08,4.67,1.71,9.49,3.22,14,3.14,9.37,5.34,19.09,9.44,28.1,3.08,6.77,5.69,13.76,9.51,20.22,2.95,4.98,4.97,10.51,7.8,15.57,2.87,5.13,4.14,10.88,6.73,16.12,1.14,2.31,1.12,5.47.81,8.14-.21,1.74.3,3.31.21,5-.37,7.01-4.13,11.92-8.95,16.27-4.3,4.04-9.49,7-15.13,8.62m-31.23-151.15c-1.04-2.84-2.25-5.6-3.65-8.27-3.57-6.21-8.36-10.11-15.81-10.2-4.98-.06-9.92,1.02-14.43,3.16-11.99,5.62-16.78,13.89-13.04,27.06,2.38,8.39,6.51,16.04,10.12,23.85,4.67,10.12,9.11,20.32,13.31,30.62,4.28,10.45,7.03,21.42,10.12,32.25,1.59,5.56,3.28,11.15,4.41,16.87.64,3.65,1.55,7.25,2.7,10.77,1.09,3.09,2.87,5.93,4.28,8.91,1.97,4.36,5.68,7.66,10.2,9.08,6.73,2.22,13.07.5,19.41-1.89,5.6-1.91,10.26-5.92,13.03-11.21,3.68-7.16,1.88-14.68-1-21.27-3.7-8.48-7.26-17.05-11.3-25.4-2.57-5.31-4.93-10.76-7.37-16.14-4.58-10.41-8.3-21.18-11.15-32.2-3.23-12.01-6.41-24.04-9.86-35.99"/>
              <path id="Path_4443-3" data-name="Path 4443-3" class="cls-2" d="m115.6,95.69l1.7,4.55c.9,3.13,1.43,6.41,3.64,8.99,2.19,5.67,5.22,10.9,8.01,16.27,4.77,9.21,11.7,17.25,14.85,27.3,2.65,8.44,2.17,16.7-2.94,24.25-3.04,4.49-7.25,6.52-12.72,6.51-8.83-.02-14.97-4.53-19.7-11.46-5.05-7.42-7.81-15.85-10.22-24.46-3.09-11.03-4.65-22.3-6.41-33.58-.8-6.24-2.35-12.36-4.6-18.22-.53-1.56-.52-3.37-2.05-4.46-1.93-5.37-5.25-9.92-8.36-14.61-2.45-3.45-4.67-7.06-6.66-10.8-.23-.55-.45-1.1-.68-1.65-1.42-4.76-3.98-9.18-3.72-14.41.56-11.12,7.45-17.47,16.9-18.14,4.94-.35,9.03,1.96,11.95,6.1,1.14,1.61,2.15,3.31,3.22,4.98.36.75.07,1.97,1.42,1.99,2.95,6.95,4.57,14.35,6.8,21.53,2.04,6.57,3.32,13.38,6.14,19.7.75,3.34,1.9,6.57,3.4,9.63"/>
            </g>
          </g>
        </g>
      </g>
    </g>
  </g>
</svg>