<?xml version="1.0" encoding="UTF-8"?>
<svg id="Layer_2" data-name="Layer 2" xmlns="http://www.w3.org/2000/svg" xmlns:xlink="http://www.w3.org/1999/xlink" viewBox="0 0 212 214.75">
  <defs>
    <style>
      .cls-1 {
        fill: #0f138c;
      }

      .cls-2 {
        fill: #d42588;
      }

      .cls-3 {
        clip-path: url(#clippath-1);
      }

      .cls-4 {
        clip-path: url(#clippath);
      }

      .cls-5 {
        fill: none;
      }
    </style>
    <clipPath id="clippath">
      <path class="cls-5" d="m20,0h172c11.05,0,20,9.07,20,20.26v194.49H0V20.26C0,9.07,8.95,0,20,0Z"/>
    </clipPath>
    <clipPath id="clippath-1">
      <polygon class="cls-5" points="40.79 30.89 107.42 6.32 171.21 183.86 104.58 208.43 40.79 30.89"/>
    </clipPath>
  </defs>
  <g id="Layer_1-2" data-name="Layer 1">
    <g class="cls-4">
      <g id="Mask_Group_16" data-name="Mask Group 16">
        <g id="Group_3076" data-name="Group 3076">
          <g class="cls-3">
            <g id="Group_3075" data-name="Group 3075">
              <path id="Path_4441-2" data-name="Path 4441-2" class="cls-1" d="m138.57,195.75c-7.94,3.18-15.36,4.89-23.28,3.49-9.34-1.65-15.36-7.54-19.3-15.72-4.77-9.9-6.59-20.74-9.01-31.39-1.62-7.13-2.68-14.44-5.51-21.27-2.01-4.84-2.65-10.13-4.74-14.96-4.67-10.87-9.03-21.86-14.61-32.33-3.38-6.34-6.48-12.87-9.33-19.53-3.03-6.67-4.2-14.05-3.37-21.35.47-3.52,1.83-6.86,3.96-9.68,4.71-6.43,11.28-11.21,18.79-13.68,5.46-1.91,10.81-4.02,16.69-4.35,5.58-.31,10.66,1.35,15.62,3.51,5.69,2.48,8.96,7.75,11.6,12.77,2.05,3.9,3.18,8.64,4.29,13.13,1.58,6.42,3.07,12.87,4.56,19.32,1.08,4.67,1.71,9.49,3.22,14,3.14,9.37,5.34,19.09,9.44,28.1,3.08,6.77,5.69,13.76,9.51,20.22,2.95,4.98,4.97,10.51,7.8,15.57,2.87,5.13,4.14,10.88,6.73,16.12,1.14,2.31,1.12,5.47.81,8.14-.21,1.74.3,3.31.21,5-.37,7.01-4.13,11.92-8.95,16.27-4.3,4.04-9.49,7-15.13,8.62m-31.23-151.15c-1.04-2.84-2.25-5.6-3.65-8.27-3.57-6.21-8.36-10.11-15.81-10.2-4.98-.06-9.92,1.02-14.43,3.16-11.99,5.62-16.78,13.89-13.04,27.06,2.38,8.39,6.51,16.04,10.12,23.85,4.67,10.12,9.11,20.32,13.31,30.62,4.28,10.45,7.03,21.42,10.12,32.25,1.59,5.56,3.28,11.15,4.41,16.87.64,3.65,1.55,7.25,2.7,10.77,1.09,3.09,2.87,5.93,4.28,8.91,1.97,4.36,5.68,7.66,10.2,9.08,6.73,2.22,13.07.5,19.41-1.89,5.6-1.91,10.26-5.92,13.03-11.21,3.68-7.16,1.88-14.68-1-21.27-3.7-8.48-7.26-17.05-11.3-25.4-2.57-5.31-4.93-10.76-7.37-16.14-4.58-10.41-8.3-21.18-11.15-32.2-3.23-12.01-6.41-24.04-9.86-35.99"/>
              <path id="Path_4443" data-name="Path 4443" class="cls-2" d="m107.4,102.25l.96,2.64c.48,1.81,1.15,3.57,1.99,5.24,1.22,3.29,2.66,6.43,4.03,9.62,2.35,5.47,5.25,10.52,7.2,16.29,1.63,4.84,2.3,9.26,1.5,12.83-.48,2.12-1.55,2.79-3.22,2.24-2.68-.9-4.99-3.97-7.1-8.2-2.2-4.61-4.04-9.38-5.51-14.28-2.02-6.28-3.61-12.54-5.25-18.83-.87-3.5-1.94-6.95-3.19-10.33-.22-.92-.57-1.81-1.06-2.62-1.16-2.99-2.48-5.92-3.98-8.76-1.06-2.14-2.14-4.27-3.09-6.52-.12-.32-.25-.64-.37-.96-.9-2.72-2.11-5.37-2.55-8.18-.93-5.96.54-8.7,3.34-8.11,1.46.31,2.93,1.98,4.23,4.51.5.99.98,2.01,1.47,3.02.18.44.21,1.07.63,1.22,1.58,4.06,2.8,8.23,4.19,12.35,1.27,3.76,2.33,7.58,3.81,11.29.56,1.89,1.22,3.75,1.98,5.56"/>
            </g>
          </g>
        </g>
      </g>
    </g>
  </g>
</svg>