<svg xmlns="http://www.w3.org/2000/svg" xmlns:xlink="http://www.w3.org/1999/xlink" width="161.403" height="119.084" viewBox="0 0 161.403 119.084">
  <defs>
    <clipPath id="clip-path">
      <rect width="161.403" height="119.084" fill="none"/>
    </clipPath>
  </defs>
  <g id="Group_3308" data-name="Group 3308" transform="translate(-1345.298 -519.458)">
    <g id="Repeat_Grid_2" data-name="Repeat Grid 2" transform="translate(1345.298 519.458)" clip-path="url(#clip-path)">
      <g id="Group_3132" data-name="Group 3132" transform="translate(-647.298 -519.458)">
        <path id="Path_4635" data-name="Path 4635" d="M1425.141,102.3a8.446,8.446,0,0,1-8.342,7.154,7.836,7.836,0,0,1-1.3-.11,8.409,8.409,0,0,0,7.03-7.044Z" transform="translate(-621.088 426.813)" fill="#d3d3d3"/>
        <g id="Group_3122" data-name="Group 3122">
          <path id="Path_4634" data-name="Path 4634" d="M577.762,213.167H445.156a6.151,6.151,0,0,1-6.215-5.58l-5.5-97.607a5.377,5.377,0,0,1,5.594-5.58H571.644a6.16,6.16,0,0,1,6.215,5.58l5.5,97.607A5.385,5.385,0,0,1,577.762,213.167Z" transform="translate(225.338 425.002)" fill="#d3d3d3"/>
          <path id="Path_4636" data-name="Path 4636" d="M489.132,211.644H355.71a5.081,5.081,0,0,1-5.318-5.621l10.911-98.2a6.632,6.632,0,0,1,6.561-5.621H501.286a5.081,5.081,0,0,1,5.318,5.621l-10.911,98.2A6.632,6.632,0,0,1,489.132,211.644Z" transform="translate(296.938 426.898)" fill="#fff"/>
          <path id="Path_4639" data-name="Path 4639" d="M593.813,304.241a.214.214,0,0,1-.221-.235l9.3-83.671a.283.283,0,0,1,.276-.235.214.214,0,0,1,.221.235l-9.3,83.671A.283.283,0,0,1,593.813,304.241Zm26.077,0a.214.214,0,0,1-.221-.235l9.3-83.671a.283.283,0,0,1,.276-.235.214.214,0,0,1,.221.235l-9.3,83.671A.308.308,0,0,1,619.889,304.241Zm26.063,0a.214.214,0,0,1-.221-.235l9.3-83.671a.283.283,0,0,1,.276-.235.214.214,0,0,1,.221.235l-9.3,83.671A.3.3,0,0,1,645.952,304.241Zm26.063,0a.214.214,0,0,1-.221-.235l9.3-83.671a.283.283,0,0,1,.276-.235.214.214,0,0,1,.221.235l-9.3,83.671A.283.283,0,0,1,672.015,304.241Z" transform="translate(87.303 325.283)" fill="#0f138c"/>
          <path id="Path_4640" data-name="Path 4640" d="M572.528,342.97H449.051a.214.214,0,0,1-.221-.235.283.283,0,0,1,.276-.235H572.583a.214.214,0,0,1,.221.235A.283.283,0,0,1,572.528,342.97Zm-2.762,24.916H446.289a.214.214,0,0,1-.221-.235.283.283,0,0,1,.276-.235H569.821a.214.214,0,0,1,.221.235A.292.292,0,0,1,569.766,367.886Zm-2.776,24.93H443.513a.214.214,0,0,1-.221-.235.283.283,0,0,1,.276-.235H567.045a.214.214,0,0,1,.221.235A.283.283,0,0,1,566.99,392.816Z" transform="translate(216.844 219.788)" fill="#0f138c"/>
          <g id="Layer_2" data-name="Layer 2" transform="translate(691 541.383)">
            <g id="menu-arrow" transform="translate(7 4)">
              <path id="Path_4643" data-name="Path 4643" d="M14.651,7.825A3.825,3.825,0,0,0,7,7.825a.765.765,0,0,0,1.53,0,2.3,2.3,0,1,1,2.3,2.3.765.765,0,0,0-.765.765v1.53a.765.765,0,0,0,1.53,0v-.842A3.825,3.825,0,0,0,14.651,7.825Z" transform="translate(-7 -4)" fill="#d42588" stroke="#d42588" stroke-width="1"/>
              <circle id="Ellipse_1150" data-name="Ellipse 1150" cx="1" cy="1" r="1" transform="translate(3 11.241)" fill="#d42588" stroke="#d42588" stroke-width="1"/>
            </g>
          </g>
          <g id="Layer_2-2" data-name="Layer 2" transform="translate(665.611 541.383)">
            <g id="menu-arrow-2" data-name="menu-arrow" transform="translate(7 4)">
              <path id="Path_4643-2" data-name="Path 4643" d="M14.651,7.825A3.825,3.825,0,0,0,7,7.825a.765.765,0,0,0,1.53,0,2.3,2.3,0,1,1,2.3,2.3.765.765,0,0,0-.765.765v1.53a.765.765,0,0,0,1.53,0v-.842A3.825,3.825,0,0,0,14.651,7.825Z" transform="translate(-7 -4)" fill="#d42588" stroke="#d42588" stroke-width="1"/>
              <circle id="Ellipse_1150-2" data-name="Ellipse 1150" cx="1" cy="1" r="1" transform="translate(3 11.241)" fill="#d42588" stroke="#d42588" stroke-width="1"/>
            </g>
          </g>
        </g>
        <path id="Path_4637" data-name="Path 4637" d="M519.586,145.6a2.261,2.261,0,0,0-2.362-2.5,2.939,2.939,0,0,0-2.914,2.5,2.261,2.261,0,0,0,2.362,2.5A2.95,2.95,0,0,0,519.586,145.6Zm29.447,0a2.261,2.261,0,0,0-2.362-2.5,2.95,2.95,0,0,0-2.914,2.5,2.261,2.261,0,0,0,2.362,2.5A2.95,2.95,0,0,0,549.033,145.6Zm29.46,0a2.261,2.261,0,0,0-2.362-2.5,2.95,2.95,0,0,0-2.914,2.5,2.261,2.261,0,0,0,2.362,2.5A2.95,2.95,0,0,0,578.493,145.6Zm29.447,0a2.261,2.261,0,0,0-2.362-2.5,2.964,2.964,0,0,0-2.928,2.5,2.261,2.261,0,0,0,2.362,2.5A2.953,2.953,0,0,0,607.94,145.6Zm29.447,0a2.261,2.261,0,0,0-2.362-2.5,2.939,2.939,0,0,0-2.914,2.5,2.261,2.261,0,0,0,2.362,2.5A2.939,2.939,0,0,0,637.386,145.6Z" transform="translate(155.645 391.647)" fill="#0b4870"/>
        <path id="Path_4638" data-name="Path 4638" d="M483.473,51.543a8.546,8.546,0,0,1-7.334-9.489c.594-5.318,5.635-9.641,11.257-9.641s9.71,4.323,9.116,9.641h-2.624c.442-3.95-2.6-7.154-6.768-7.154a8.451,8.451,0,0,0-8.356,7.154,6.345,6.345,0,0,0,5.456,7.044,1.94,1.94,0,0,1-.083,1.381C483.818,51.35,483.473,51.543,483.473,51.543Zm29.75,0a8.536,8.536,0,0,1-7.334-9.489c.594-5.318,5.635-9.641,11.257-9.641s9.71,4.323,9.116,9.641h-2.61c.442-3.95-2.6-7.154-6.768-7.154a8.451,8.451,0,0,0-8.356,7.154,6.345,6.345,0,0,0,5.456,7.044,1.94,1.94,0,0,1-.083,1.381A2.171,2.171,0,0,1,513.223,51.543Zm29.737,0a8.546,8.546,0,0,1-7.334-9.489c.594-5.318,5.635-9.641,11.257-9.641s9.71,4.323,9.116,9.641h-2.624c.442-3.95-2.6-7.154-6.768-7.154a8.451,8.451,0,0,0-8.356,7.154,6.345,6.345,0,0,0,5.456,7.044,1.94,1.94,0,0,1-.083,1.381C543.291,51.35,542.96,51.543,542.96,51.543Zm29.737,0a8.546,8.546,0,0,1-7.334-9.489c.594-5.318,5.635-9.641,11.257-9.641s9.71,4.323,9.116,9.641h-2.624c.442-3.95-2.6-7.154-6.768-7.154a8.451,8.451,0,0,0-8.356,7.154,6.345,6.345,0,0,0,5.456,7.044,1.94,1.94,0,0,1-.083,1.381C573.028,51.35,572.7,51.543,572.7,51.543Zm42.775-9.489h-2.624a5.128,5.128,0,0,0,.041-.649,6.149,6.149,0,0,0-.069-1.022c-.028-.18-.055-.359-.1-.525a1.1,1.1,0,0,0-.083-.3,6.472,6.472,0,0,0-5.179-4.544,7.6,7.6,0,0,0-1.4-.124,8.45,8.45,0,0,0-8.356,7.154,6.345,6.345,0,0,0,5.456,7.044,1.94,1.94,0,0,1-.083,1.381,2.045,2.045,0,0,1-.649,1.05,8.557,8.557,0,0,1-7.348-9.489c.594-5.318,5.635-9.627,11.257-9.627,5.483,0,9.5,4.116,9.143,9.24a2.048,2.048,0,0,1-.014.414Z" transform="translate(188.582 487.058)" fill="#d42588"/>
      </g>
    </g>
  </g>
</svg>
