<?xml version="1.0" encoding="UTF-8"?>
<svg id="Layer_2" data-name="Layer 2" xmlns="http://www.w3.org/2000/svg" xmlns:xlink="http://www.w3.org/1999/xlink" viewBox="0 0 213 212">
  <defs>
    <style>
      .cls-1 {
        fill: #fff;
      }

      .cls-2 {
        clip-path: url(#clippath-2);
      }

      .cls-3 {
        fill: #fdf1f7;
      }

      .cls-4 {
        clip-path: url(#clippath-1);
      }

      .cls-5 {
        clip-path: url(#clippath);
      }

      .cls-6 {
        fill: none;
      }

      .cls-7 {
        clip-path: url(#clippath-3);
      }
    </style>
    <clipPath id="clippath">
      <path class="cls-6" d="m20,0h172c11.05,0,20,8.95,20,20v192H0V20C0,8.95,8.95,0,20,0Z"/>
    </clipPath>
    <clipPath id="clippath-1">
      <rect class="cls-6" x="9.46" y="14.67" width="203.54" height="195.33"/>
    </clipPath>
    <clipPath id="clippath-2">
      <path class="cls-6" d="m73.76,122.73c-2.99.67-6.01,1.51-8.98,2.3-1.94.51-3.94.96-5.95,1.44-5.85,1.36-11.81,2.87-16.71,6.21-9.1,6.19-13.57,16.82-16.13,27.14-2.97,11.96-4.48,24.2-7.52,36.14-1.16,4.61-2.23,9.35-3.06,14.05h177.13c-.25-5.6-1.23-11.12-1.6-16.73-.62-9.3-1.48-18.62-2.16-27.93-.62-8.5-2.1-17.22-6.02-24.86-1.87-3.44-4.74-6.23-8.22-8.01-2.12-1.15-4.29-2.19-6.52-3.1-3.25-1.39-6.56-2.62-9.94-3.67-1.23-.38-2.48-.45-3.71-.71-.6-.13-1.43-.54-2.14-.69-2.59,3.93-5.48,7.65-8.65,11.13-5.97,6.99-12.3,14.07-18.78,20.58-2.45,2.46-4.81,5.06-7.23,7.52-1.67,1.7-2.66,2.57-4.97,1.59-3.3-1.41-6.22-4.13-9.16-6.21-5.11-3.66-9.57-8.16-13.19-13.3-3.76-5.08-7.17-10.41-10.22-15.95-1.29-2.44-1.92-5.05-2.94-7.47-.05-.11-.1-.22-.14-.34-1.01.44-2.07.74-3.17.87"/>
    </clipPath>
    <clipPath id="clippath-3">
      <rect class="cls-6" x="9.46" y="14.67" width="203.54" height="195.33"/>
    </clipPath>
  </defs>
  <g id="Layer_1-2" data-name="Layer 1">
    <g class="cls-5">
      <g id="Mask_Group_26" data-name="Mask Group 26">
        <g id="Group_3203" data-name="Group 3203">
          <g class="cls-4">
            <g id="Group_3202" data-name="Group 3202">
              <g id="Group_3196" data-name="Group 3196">
                <g class="cls-2">
                  <g id="Group_3195" data-name="Group 3195">
                    <path id="Path_5176" data-name="Path 5176" class="cls-1" d="m186.92,125.06c-10.37,1.32-20.79,2.3-31.11,3.96-10.44,1.68-20.44,4.21-31.1,4.17-10.48-.05-20.8-1.88-31.32-1.69-10.2.18-20.39,1.42-30.6,1.1-11.29-.36-22.55-1.75-33.77.22-2.66.47-1.53,4.52,1.12,4.06,10.07-1.76,20.3-.59,30.43-.15,10.21.44,20.35-.67,30.55-.96,4.94-.14,9.9-.12,14.83.23,5.13.36,10.21,1.15,15.36,1.34,10.25.38,19.87-1.33,29.87-3.24,11.81-2.25,23.81-3.3,35.73-4.82,2.65-.34,2.68-4.55,0-4.21"/>
                    <path id="Path_5177" data-name="Path 5177" class="cls-1" d="m186.69,140.16c-10.69,1.59-21.18,4.18-31.74,6.41-10.92,2.27-21.99,3.74-33.12,4.4-10.96.69-21.94.98-32.89,1.71-10.99.73-21.79,2.33-32.67,3.98-6.29,1.1-12.66,1.68-19.04,1.75-6-.07-11.93-.5-17.89.46-2.66.43-1.53,4.49,1.12,4.05,5.37-.87,10.8-.41,16.21-.32,5.38,0,10.75-.41,16.06-1.22,11.3-1.54,22.47-3.51,33.87-4.34,21.72-1.58,43.57-1.3,65.03-5.51,12.08-2.38,24-5.51,36.19-7.32,2.67-.4,1.53-4.45-1.12-4.06"/>
                    <path id="Path_5178" data-name="Path 5178" class="cls-1" d="m196.61,163.47c-11.62.59-23.25.09-34.88.48-11.64.39-23.23,1.66-34.83,2.66-23.41,2-46.92,1.37-70.31,3.53-13.33,1.23-26.69,2.16-40.03,3.36-2.67.24-2.7,4.45,0,4.21,23.46-2.11,47-4.52,70.54-5.12,11.73-.3,23.45-.49,35.15-1.39,11.61-.9,23.18-2.23,34.81-2.84,13.17-.68,26.37-.02,39.54-.68,2.69-.14,2.71-4.34,0-4.21"/>
                    <path id="Path_5179" data-name="Path 5179" class="cls-1" d="m193.93,179.17c-11.99-.98-23.89.8-35.8,1.97-11.96,1.18-24,1.49-36.01,1.55-24.14.11-48.32-.89-72.42.96-6.44.49-12.83,1.25-19.28,1.59-6.5.21-12.99.78-19.43,1.7-2.66.44-1.53,4.49,1.12,4.06,5.7-.81,11.44-1.31,17.19-1.49,5.85-.3,11.66-.91,17.5-1.41,11.85-1.02,23.74-1.34,35.63-1.38,23.9-.09,47.86.96,71.71-1,13.26-1.09,26.47-3.42,39.81-2.33,2.7.22,2.68-3.99,0-4.21"/>
                    <path id="Path_5180" data-name="Path 5180" class="cls-1" d="m210.97,196.87c-6.29.13-12.57,1.17-18.87.74-6.27-.43-12.5-.9-18.79-.93-12.63-.05-25.27.59-37.88,1.21-12.93.64-25.86,1.46-38.77,2.45-13.03,1.02-26,2.77-39.05,3.48-14.3.78-28.54-.59-42.72-2.27-2.68-.32-2.66,3.89,0,4.2,12.6,1.5,25.27,2.81,37.99,2.47,12.86-.34,25.62-2.19,38.43-3.24,25.7-2.12,51.58-3.83,77.37-4.08,6.88-.07,13.73.12,20.58.68,7.32.6,14.41-.34,21.72-.5,2.7-.06,2.71-4.26,0-4.21"/>
                  </g>
                </g>
              </g>
              <g id="Group_3201" data-name="Group 3201">
                <g class="cls-7">
                  <g id="Group_3200" data-name="Group 3200">
                    <path id="Path_5182" data-name="Path 5182" class="cls-1" d="m83.07,119.52c-1.97.99-4.09,1.63-6,2.68-.05-.11-.1-.22-.14-.34-1.01.44-2.07.74-3.17.87-2.99.67-6.01,1.51-8.98,2.3-1.94.51-3.94.96-5.95,1.44-.63-1.23-1.56-2.39-1.53-3.82.08-3.89,4.69-6.66,5.2-10.65.58-4.54-3.38-8.18-3.18-12.74.2-4.53,5.2-6.42,7.25-9.95,2.38-4.1-.16-8.14.85-12.43,1.06-4.46,4.93-6.89,6.73-10.85,1.99-4.38,1.83-8.83,1.71-13.5-.13-5.07-1.06-9.76.54-14.74,1.62-5.03,4.89-10.82,9.35-13.83,10.04-6.78,24.46-11.44,36.55-8.3,9.99,2.59,17.15,10.98,21.5,20.08,4.46,9.35,4.98,19.02,6.52,28.98.66,4.28,3.02,6.93,5.86,9.98,3.73,4,4.37,8.03,5.18,13.34.35,2.29.68,5.08,2.35,6.87,1.72,1.84,4.35,2.3,6.53,3.41,5.1,2.58,6.3,7.77,4.74,12.97-.6,2.01-1.29,3.48-.42,5.49.79,1.83,2.17,3.31,2.85,5.22,1.59,4.48-1.27,6.89-2.87,10.45-2.12-1.15-4.3-2.19-6.52-3.11-3.25-1.39-6.56-2.62-9.94-3.67-1.23-.38-2.48-.45-3.71-.71-.6-.13-1.43-.54-2.15-.69.04-.06.08-.11.11-.18-2.1-.75-4.16-1.62-6.16-2.6-6.57-2.89-9.91-9.7-11.57-16.44-1.24-5.07-2.44-10.29-3.39-15.42-.67-3.63-.64-7.38-1.24-10.97.79-.31,1.84-.49,2.63-.83,1.45-.62,2.78-1.45,4.18-2.17,3.09-1.58,4.85-3.74,5.21-7.32.38-3.82-.38-16.45-6.85-13.31-2.97,1.57-5.11,4.35-5.86,7.62-.79-1.05-1.53-2.14-2.2-3.28-.98-1.64-1.7-3.41-2.13-5.27-.44-2.34-1.32-4.58-2.61-6.58-1.52-1.94-3.27-3.7-5.2-5.23-1.96-1.74-3.71-3.65-5.68-5.35-1.59-1.36-3.33-2.35-4.82-3.76-1.18-1.12-1.8-1.97-.44-3.2.45-.4.93-.76,1.45-1.07,1.12-.69,2.33-1.23,3.48-1.9,1.88-1.11,3.62-2.36,5.4-3.65,1.23-.89,3.57-2.4,3.8-3.99-1.3.14-2.55.56-3.67,1.23-2.74,1.29-5.22,3.05-7.35,5.21-1.01.98-2.1,1.87-3.26,2.65-.95.69-2.08,1.07-3.24,1.1-1.72-1.14-4.72-.44-6.52.05-3.67,1.05-7.16,2.63-10.38,4.68-5.52,3.44-7.32,9.81-7.32,15.98-.13,3.72-.06,7.44.22,11.16.28,3.99.21,8-.21,11.97-.32,4.49,1.66,8.36,3.61,12.24,2.02,4,3.68,8.25,6.74,11.55,1.75,2.07,4.22,3.42,6.91,3.76.46,3.47-.49,8.84-2.26,11.18-2.41,3.18-7.02,5.6-10.52,7.35"/>
                    <path id="Path_5183" data-name="Path 5183" class="cls-3" d="m120.32,19.39c-.23,1.59-2.57,3.1-3.8,3.99-1.79,1.3-3.53,2.54-5.4,3.65-1.15.68-2.36,1.21-3.48,1.9l-1.6-.45c1.16-.79,2.25-1.68,3.26-2.65,2.12-2.16,4.61-3.92,7.35-5.21,1.12-.67,2.37-1.09,3.67-1.23"/>
                    <path id="Path_5186" data-name="Path 5186" class="cls-3" d="m76.94,120.3c.83,4.47,2.45,8.76,4.79,12.66,2.31,3.91,4.9,7.64,7.76,11.17,2.82,3.54,5.94,6.84,9.32,9.86,1.69,1.51,3.43,2.94,5.24,4.32,1.73,1.43,3.56,2.74,5.46,3.93.93.54,1.92.96,2.96,1.24.97.28,2,.29,2.98.03.98-.31,1.89-.83,2.66-1.51.88-.68,1.72-1.41,2.53-2.17,1.64-1.54,3.19-3.16,4.66-4.86,1.5-1.68,2.96-3.43,4.43-5.17l2.25-2.59c.76-.85,1.49-1.7,2.23-2.56,1.48-1.72,2.92-3.49,4.43-5.2.75-.86,1.5-1.72,2.29-2.57.8-.86,1.65-1.62,2.49-2.39,1.76-1.41,3.28-3.1,4.51-5l.16.08c-.46,1.06-1.08,2.05-1.82,2.93-.72.9-1.5,1.75-2.28,2.58s-1.58,1.64-2.28,2.49-1.41,1.78-2.1,2.67c-1.37,1.81-2.76,3.62-4.17,5.42-.71.9-1.44,1.79-2.17,2.66l-2.16,2.63c-1.45,1.75-2.89,3.52-4.41,5.26-.5.57,4.93-3.89-4.86,4.94-.87.77-1.77,1.51-2.71,2.21-.97.79-2.09,1.38-3.29,1.72-1.24.3-2.54.26-3.77-.11-1.16-.34-2.26-.84-3.29-1.47-1.94-1.25-3.79-2.64-5.54-4.15-1.79-1.42-3.54-2.92-5.22-4.48-3.36-3.12-6.45-6.53-9.23-10.17-2.79-3.63-5.3-7.46-7.52-11.46-2.25-3.99-3.77-8.36-4.49-12.89l.17-.03Z"/>
                    <path id="Path_5187" data-name="Path 5187" class="cls-3" d="m83.76,35.92c-1.64,1.59-2.95,3.49-3.85,5.58-.37,1.08-.64,2.18-.83,3.31-.19,1.13-.44,2.26-.6,3.38-.29,2.26-.33,4.54-.13,6.81.09,1.13.24,2.26.42,3.39s.33,2.29.44,3.44c.22,2.31.28,4.63.18,6.95-.11,2.32-.41,4.6-.29,6.82.03.55.09,1.1.17,1.65.1.53.22,1.08.36,1.63.28,1.09.63,2.16,1.04,3.21.4,1.05.87,2.07,1.38,3.07.5,1,1.12,1.93,1.71,2.95,1.17,2.01,2.2,4.05,3.46,5.89.61.91,1.3,1.76,2.08,2.53.78.75,1.64,1.4,2.58,1.95.47.28.95.54,1.45.78s1.02.48,1.48.65c.48.16.98.28,1.49.36.52.06,1.03.08,1.55.07,2.22-.22,4.41-.66,6.53-1.32,4.43-1.03,8.74-2.47,12.89-4.32,2.05-.95,3.99-2.13,5.78-3.51.9-.68,1.76-1.43,2.55-2.24.41-.39.79-.81,1.16-1.25.37-.42.69-.89.94-1.4l.17.06c-.44,1.08-1.08,2.08-1.87,2.94-.74.9-1.55,1.74-2.41,2.52-1.75,1.54-3.68,2.89-5.73,4-4.13,2.13-8.49,3.79-13,4.94-1.12.3-2.21.61-3.36.89-1.17.3-2.37.49-3.58.56-1.27.05-2.54-.14-3.73-.57-.57-.22-1.12-.47-1.66-.75-.53-.27-1.06-.56-1.57-.88-1.04-.64-1.99-1.4-2.85-2.27-.83-.87-1.58-1.82-2.22-2.83-1.29-1.99-2.28-4.08-3.37-6.07-.53-.97-1.17-1.98-1.68-3.04-.52-1.05-.98-2.13-1.38-3.23-.4-1.1-.74-2.23-1.02-3.37-.14-.57-.25-1.14-.35-1.74-.08-.59-.13-1.19-.15-1.78-.07-2.37.28-4.67.43-6.93.14-2.27.13-4.55-.05-6.81-.08-1.13-.2-2.27-.35-3.4-.16-1.14-.28-2.3-.34-3.46-.15-2.32-.04-4.64.31-6.94.19-1.15.47-2.26.69-3.39.22-1.14.53-2.26.94-3.34.97-2.11,2.35-4.01,4.06-5.58l.13.12Z"/>
                    <path id="Path_5188" data-name="Path 5188" class="cls-3" d="m174.04,132.01c.8-1.03,1.38-2.21,1.7-3.48.27-1.25.11-2.56-.43-3.71-.67-1.09-1.55-2.05-2.59-2.81-1.08-.85-1.99-1.88-2.7-3.06-.64-1.24-1.01-2.59-1.08-3.98-.07-1.34-.07-2.68.02-4.02.1-1.28.09-2.56-.04-3.83-.07-.56-.25-1.1-.54-1.59-.31-.44-.74-.78-1.23-.99-1.19-.46-2.41-.81-3.66-1.06-1.34-.33-2.64-.82-3.88-1.44-1.29-.67-2.42-1.6-3.32-2.74-.87-1.18-1.45-2.54-1.7-3.99-.48-2.82-.04-5.47-.13-8.01,0-1.27-.19-2.54-.54-3.77-.34-1.21-1.09-2.42-1.15-3.8l.18-.02c.47,1.23,1.05,2.41,1.74,3.53.55,1.26.89,2.59,1.03,3.96.36,2.71.1,5.38.64,7.77.23,1.16.72,2.25,1.42,3.2.73.95,1.64,1.73,2.69,2.31,1.09.62,2.25,1.11,3.46,1.47,1.33.32,2.62.75,3.87,1.31.71.35,1.31.88,1.74,1.55.37.66.6,1.39.67,2.15.1,1.36.07,2.72-.08,4.07-.12,1.29-.18,2.59-.15,3.89.02,1.26.31,2.49.85,3.63.61,1.12,1.42,2.12,2.38,2.94.48.45.96.91,1.42,1.4.48.5.87,1.07,1.17,1.7.79,1.93.61,4.11-.48,5.89-.35.57-.75,1.1-1.12,1.64l-.15-.1Z"/>
                    <path id="Path_5189" data-name="Path 5189" class="cls-3" d="m120.36,19.26c-.05.64-.31,1.25-.74,1.74-.4.49-.83.94-1.31,1.35-.93.83-1.91,1.6-2.93,2.32-1.03.7-2.1,1.35-3.21,1.93-1.08.58-2.13,1.22-3.14,1.91l-1.54,1.04c-.48.27-.87.66-1.15,1.13-.48.86.16,1.95.95,2.74.89.79,1.89,1.44,2.97,1.95,1.11.61,2.17,1.25,3.22,1.97,1.06.72,2.05,1.55,2.94,2.47l2.54,2.73c1.74,1.83,3.33,3.79,4.75,5.88,2.99,4.32,3.32,9.74,5.99,13.38l-1.18.96c-.07-.12-.13-.25-.18-.38-.03-.12-.05-.24-.07-.35-.01-.2,0-.39.04-.58.06-.31.17-.61.31-.9.24-.51.54-1,.88-1.45.33-.45.69-.87,1.09-1.26.38-.37.77-.73,1.19-1.08.82-.71,1.74-1.29,2.74-1.73.5-.22,1.02-.38,1.55-.49.53-.09,1.07-.1,1.6-.04v.17c-.51.03-1.01.13-1.5.28-.48.16-.93.38-1.36.64-.86.53-1.64,1.17-2.33,1.9-.35.36-.69.75-1.03,1.13-.32.37-.61.77-.86,1.19-.25.41-.47.84-.65,1.28-.08.19-.13.39-.16.59-.03.17.02.28,0,.19l-1.18.96c-.46-.5-.86-1.06-1.2-1.65-.32-.56-.63-1.13-.9-1.71-.53-1.15-1-2.32-1.41-3.51-.42-1.17-.82-2.32-1.26-3.43-.44-1.1-.98-2.16-1.6-3.18-1.28-2.07-2.74-4.02-4.36-5.83l-2.43-2.78c-.81-.88-1.7-1.68-2.67-2.38-.97-.71-2.01-1.38-3.05-2-1.15-.59-2.21-1.33-3.14-2.22-.48-.49-.86-1.07-1.12-1.71-.3-.71-.26-1.51.1-2.19.37-.59.89-1.08,1.51-1.4l1.58-.97c1.06-.67,2.15-1.27,3.28-1.82,1.11-.53,2.19-1.12,3.23-1.77,1.03-.67,2.03-1.39,2.98-2.17.48-.38.92-.8,1.32-1.26.42-.43.68-.99.76-1.58h.18Z"/>
                  </g>
                </g>
              </g>
            </g>
          </g>
        </g>
      </g>
    </g>
  </g>
</svg>